<svg width="103" height="105" viewBox="0 0 103 105" fill="none" xmlns="http://www.w3.org/2000/svg">
<path d="M25.8229 52.8018C30.6109 60.4738 35.2649 67.8928 39.8649 75.3438C40.4999 76.3728 41.1067 76.3797 42.1017 75.9247C44.7137 74.7307 47.3659 73.6247 50.0109 72.5087C53.6839 70.9587 57.2408 71.8088 59.4528 75.0988C62.0328 78.9338 64.5159 82.8507 66.7619 86.8887C69.1849 91.2477 67.8738 95.4427 63.6618 98.0967C59.5668 100.676 55.5275 103.318 50.5705 104.05C46.3231 104.724 41.98 104.463 37.8439 103.285C33.7078 102.107 29.8786 100.04 26.6237 97.2298C13.9853 86.8812 5.00733 72.7449 1.01382 56.9058C-0.836933 49.9089 -0.13858 42.4818 2.98452 35.9528C4.95812 31.6537 8.131 28.0157 12.1217 25.4758C13.5957 24.5268 15.0736 23.5857 16.5436 22.6337C20.6566 19.9677 25.1625 20.6477 27.9855 24.7117C30.7015 28.6217 33.2068 32.6928 35.5778 36.8238C37.5438 40.2508 36.6707 43.8547 33.6037 46.4047C31.0757 48.5047 28.5279 50.5788 25.8229 52.8018ZM4.57144 50.1428C4.75391 52.2732 5.0818 54.3888 5.55191 56.4748C9.44513 70.6272 17.4223 83.3184 28.4875 92.9627C32.9262 96.9139 38.5279 99.3178 44.4499 99.8128C50.8839 100.433 56.1566 97.7128 61.2296 94.2618C63.4986 92.7208 64.0578 91.1408 62.6608 88.7708C60.5268 85.1498 58.2488 81.6147 55.9938 78.0707C55.8038 77.6731 55.5319 77.32 55.1964 77.0344C54.8609 76.7487 54.4693 76.5368 54.0465 76.4125C53.6238 76.2883 53.1795 76.2545 52.7428 76.3133C52.3061 76.3721 51.8868 76.5221 51.5119 76.7537C48.2769 78.2637 44.9418 79.5627 41.7038 81.0657C39.7728 81.9657 38.4298 81.6518 37.2838 79.7988C32.0172 71.2748 26.7131 62.7748 21.3717 54.2988C20.2717 52.5488 20.4224 51.2547 22.0714 49.9617C24.9904 47.6677 27.7976 45.2288 30.7126 42.9288C31.0308 42.7364 31.3065 42.4814 31.5231 42.1791C31.7397 41.8769 31.8928 41.5337 31.9728 41.1706C32.0528 40.8074 32.0581 40.4318 31.9884 40.0666C31.9188 39.7013 31.7755 39.354 31.5675 39.0457C29.1565 35.0227 26.7059 31.0147 24.0749 27.1347C22.8159 25.2787 21.0329 25.1858 19.0949 26.4068C18.0869 27.0418 17.1299 27.7627 16.0949 28.3527C8.01988 32.9627 4.87344 40.2778 4.57144 50.1428Z" fill="#3C3C3B"/>
<path d="M102.864 59.4897C102.248 63.8487 101.637 68.2086 101.006 72.5666C100.768 74.2206 99.8214 75.2237 98.1274 74.7867C96.5874 74.3867 96.3053 73.1867 96.6113 71.6257C100.711 50.5497 95.0117 32.5187 79.4697 17.7257C72.8926 11.5494 64.8464 7.156 56.0947 4.96261C55.4857 4.80161 54.8684 4.66261 54.2704 4.46261C53.9733 4.40803 53.6916 4.29044 53.4438 4.11764C53.196 3.94483 52.9878 3.72086 52.8339 3.4609C52.68 3.20093 52.5835 2.91105 52.5512 2.61068C52.5189 2.3103 52.5514 2.00646 52.6464 1.71969C52.6986 1.42009 52.8159 1.13554 52.9902 0.886313C53.1644 0.637085 53.3917 0.429293 53.6552 0.277426C53.9187 0.12556 54.2121 0.0333987 54.5151 0.00752877C54.8181 -0.0183411 55.1232 0.0226416 55.4086 0.127646C58.521 0.942998 61.5895 1.9169 64.6025 3.04561C75.8131 7.6641 85.418 15.4778 92.2211 25.514C99.0242 35.5502 102.725 47.3658 102.864 59.4897Z" fill="#3C3C3B"/>
<path d="M85.8039 59.7519C85.4629 62.4579 85.1945 65.176 84.7565 67.867C84.3405 70.428 83.2806 71.5139 81.7716 71.0539C79.6246 70.3989 80.0197 68.739 80.2917 67.084C83.0447 50.428 77.6036 36.95 64.0026 27.098C60.2966 24.414 55.6465 22.987 51.3395 21.198C49.2955 20.347 48.2966 19.527 48.8576 18.066C49.5456 16.271 50.9575 16.371 52.5275 16.777C72.0385 21.807 85.9939 39.8909 85.8039 59.7519Z" fill="#3C3C3B"/>
<path d="M70.3864 59.4663C70.1374 61.4063 69.9242 63.3513 69.6272 65.2853C69.3982 66.7683 68.6274 67.8854 66.9694 67.5904C65.2124 67.2794 64.9022 65.9523 65.2082 64.3673C65.9182 61.0659 65.9155 57.651 65.2004 54.3507C64.4853 51.0505 63.0741 47.9407 61.0612 45.2293C57.8962 40.7937 53.2967 37.587 48.0402 36.1513C47.2234 36.0215 46.4676 35.6394 45.8791 35.0584C45.6604 34.692 45.529 34.2803 45.4943 33.855C45.4597 33.4298 45.5229 33.0023 45.6794 32.6054C45.94 32.2679 46.2795 31.9998 46.6682 31.8245C47.0569 31.6492 47.4829 31.5723 47.9084 31.6004C50.1594 32.0986 52.3498 32.8381 54.4421 33.8063C59.2099 36.1942 63.2236 39.8557 66.0378 44.3849C68.852 48.9141 70.3573 54.1341 70.3864 59.4663Z" fill="#3C3C3B"/>
</svg>
