<svg width="108" height="81" viewBox="0 0 108 81" fill="none" xmlns="http://www.w3.org/2000/svg">
<path d="M53.9179 0.00815879C65.9846 0.00815879 78.0514 0.00983034 90.1181 0.0131637C94.3835 -0.09721 98.5382 1.37745 101.779 4.1522C105.021 6.92696 107.118 10.8048 107.667 15.0361C107.826 16.425 107.879 17.8242 107.825 19.2212C107.833 33.9632 107.876 48.7051 107.808 63.4471C107.84 65.735 107.414 68.0061 106.555 70.1268C105.696 72.2475 104.421 74.1748 102.806 75.7951C101.19 77.4155 99.2669 78.6962 97.1489 79.5618C95.0308 80.4274 92.761 80.8603 90.4731 80.8351C77.1301 80.9151 63.7861 80.8651 50.4421 80.8661C39.5751 80.8661 28.708 80.8391 17.842 80.8661C13.5809 80.981 9.42639 79.5247 6.16962 76.7745C2.91285 74.0243 0.781414 70.1723 0.181096 65.9521C0.0487685 65.0028 -0.00917037 64.0445 0.008 63.0862C-0.00266667 47.9842 -0.00266667 32.8818 0.008 17.7792C0.028 7.45816 7.66601 -0.0318979 17.966 0.000102145C29.944 0.0391021 41.9329 0.00715879 53.9179 0.00815879ZM53.9089 75.8221V75.8141H63.0151C72.0401 75.8141 81.067 75.8651 90.093 75.8061C97.652 75.7571 102.76 70.5441 102.793 62.9961C102.803 60.1961 102.788 57.4041 102.788 54.6091C102.788 42.2678 102.788 29.9268 102.788 17.5862C102.853 15.4141 102.332 13.2646 101.28 11.363C100.229 9.46144 98.6852 7.87788 96.811 6.77818C94.221 5.14218 91.3259 5.02808 88.3769 5.03208C70.6049 5.05675 52.8327 5.06115 35.06 5.04515C29.069 5.04515 23.0771 5.00709 17.0881 5.08409C15.0369 5.08168 13.0202 5.61227 11.2358 6.62376C9.45138 7.63525 7.96035 9.09297 6.90888 10.8541C5.60784 12.935 4.95924 15.3576 5.04609 17.8102C5.04609 24.1608 5.04609 30.5111 5.04609 36.8611C5.04609 45.6881 5.03009 54.5142 5.04609 63.3412C4.9968 65.4111 5.47892 67.459 6.44672 69.2894C7.41452 71.1198 8.83552 72.6714 10.5739 73.7961C12.9183 75.2826 15.6709 75.9946 18.4421 75.8312C30.2647 75.8098 42.0869 75.8068 53.9089 75.8221Z" fill="#3C3C3B"/>
<path d="M70.3229 41.4898C72.4089 43.4688 74.5148 45.4728 76.6278 47.4718C82.4005 52.9384 88.1748 58.4018 93.9508 63.8618C94.3983 64.1703 94.746 64.6027 94.9513 65.1059C95.1567 65.6091 95.2107 66.1613 95.1068 66.6948C94.9829 67.1833 94.7219 67.6262 94.3546 67.9713C93.9874 68.3165 93.5291 68.5494 93.0338 68.6428C92.518 68.7288 91.9885 68.6738 91.5014 68.4835C91.0143 68.2932 90.5876 67.9747 90.2668 67.5618C88.2868 65.7008 86.3268 63.8208 84.3568 61.9508C78.6488 56.5334 72.9402 51.1171 67.2309 45.7018C67.0039 45.4868 66.7459 45.3018 66.4049 45.0318C65.0349 46.3608 63.6929 47.6588 62.3549 48.9618C60.2939 50.9688 58.2429 52.9838 56.1779 54.9858C54.5779 56.5358 53.2259 56.5188 51.6029 54.9378C48.5416 51.9558 45.4811 48.9718 42.4218 45.9858C42.1418 45.7138 41.8428 45.4628 41.4618 45.1198C40.1028 46.4028 38.7998 47.6278 37.5038 48.8598C31.0438 54.9931 24.5839 61.1265 18.1239 67.2598C17.8102 67.567 17.4761 67.8526 17.1239 68.1148C16.8599 68.3317 16.5554 68.4941 16.2282 68.5926C15.9009 68.691 15.5573 68.7234 15.2174 68.6881C14.8775 68.6527 14.5482 68.5503 14.2482 68.3866C13.9482 68.223 13.6836 68.0014 13.4699 67.7348C13.2567 67.4937 13.0935 67.2127 12.9899 66.908C12.8863 66.6033 12.8445 66.281 12.8666 65.96C12.8888 65.6389 12.9746 65.3255 13.119 65.0379C13.2635 64.7503 13.4636 64.4943 13.7079 64.2848C15.7879 62.2408 17.9259 60.2558 20.0439 58.2528C25.6439 52.9548 31.2458 47.6578 36.8498 42.3618C37.1298 42.0958 37.3788 41.7978 37.6298 41.5288C35.9408 39.8038 34.3538 38.1288 32.7038 36.5088C26.3371 30.2754 19.963 24.0514 13.581 17.8368C12.028 16.3178 12.1808 14.5768 13.8908 13.5558C14.3017 13.2586 14.8038 13.1149 15.3097 13.1496C15.8156 13.1843 16.2934 13.3952 16.6598 13.7457C17.9058 14.8657 19.1138 16.0318 20.3158 17.2008C31.2252 27.8154 42.1321 38.4324 53.0368 49.0518C53.2908 49.2988 53.563 49.5278 53.945 49.8718C55.482 48.3858 56.9968 46.9298 58.5038 45.4628C69.0645 35.1781 79.6244 24.8925 90.1837 14.6058C90.3837 14.4058 90.5789 14.2058 90.7909 14.0288C92.1419 12.8808 93.5329 12.8978 94.6059 14.0718C95.6529 15.2158 95.5869 16.5278 94.3239 17.7648C88.0719 23.8848 81.7918 29.9768 75.5468 36.1038C73.8088 37.8118 72.1499 39.5988 70.3229 41.4898Z" fill="#3C3C3B"/>
</svg>
