<svg width="73" height="89" viewBox="0 0 73 89" fill="none" xmlns="http://www.w3.org/2000/svg">
<path d="M30.837 46.1239L23.0665 37.9382L18.8369 42.3922L30.837 55.037L54.8371 29.7466L50.6092 25.29L30.837 46.1239Z" fill="#3C3C3B"/>
<path d="M36.837 88.516L18.3053 78.1016C7.54572 72.0704 0.82417 60.2661 0.836828 47.4196V6.32239C0.796667 4.68906 1.40566 3.10642 2.53034 1.92131C3.65502 0.736201 5.20366 0.0452937 6.83685 0H66.8371C68.4703 0.0452937 70.019 0.736201 71.1436 1.92131C72.2683 3.10642 72.8773 4.68906 72.8372 6.32239V47.4196C72.8498 60.2669 66.1283 72.0712 55.3687 78.105L36.837 88.516ZM6.83685 6.32239V47.4196C6.78194 52.4962 8.07699 57.4962 10.5894 61.9078C13.1019 66.3194 16.7415 69.9841 21.1357 72.5269L36.837 81.3506L52.5375 72.532C56.9324 69.9888 60.5725 66.3232 63.085 61.9106C65.5975 57.4981 66.8921 52.497 66.8363 47.4196V6.32239H6.83685Z" fill="#3C3C3B"/>
</svg>
