<svg width="93" height="93" viewBox="0 0 93 93" fill="none" xmlns="http://www.w3.org/2000/svg">
<path d="M47.201 26.4066C43.2154 26.4062 39.3192 27.5877 36.0051 29.8017C32.6911 32.0157 30.1079 35.1627 28.5825 38.8448C27.057 42.5269 26.6576 46.5786 27.4349 50.4877C28.2122 54.3967 30.1313 57.9875 32.9494 60.8058C35.7675 63.6242 39.358 65.5436 43.267 66.3213C47.1759 67.099 51.2277 66.7 54.91 65.1749C58.5922 63.6498 61.7395 61.067 63.9538 57.7531C66.1681 54.4393 67.35 50.5432 67.35 46.5576C67.3664 43.9069 66.8565 41.2793 65.8498 38.8272C64.8431 36.3751 63.3596 34.1472 61.4853 32.2727C59.611 30.3983 57.3833 28.9145 54.9313 27.9076C52.4792 26.9006 49.8517 26.3904 47.201 26.4066ZM47.201 60.9506C44.3543 60.9506 41.5716 60.1065 39.2047 58.525C36.8377 56.9434 34.993 54.6956 33.9036 52.0656C32.8142 49.4356 32.5292 46.5417 33.0845 43.7497C33.6399 40.9577 35.0107 38.3931 37.0236 36.3802C39.0365 34.3673 41.6011 32.9965 44.393 32.4412C47.185 31.8858 50.079 32.1709 52.7089 33.2602C55.3389 34.3496 57.5868 36.1944 59.1683 38.5613C60.7498 40.9282 61.594 43.711 61.594 46.5576C61.6126 48.4529 61.253 50.3329 60.5362 52.0875C59.8195 53.8421 58.76 55.4362 57.4198 56.7764C56.0795 58.1166 54.4855 59.1761 52.7308 59.8929C50.9762 60.6096 49.0963 60.9692 47.201 60.9506Z" fill="#3C3C3B"/>
<path d="M89.517 37.0582L81.454 34.4672L79.73 30.1492L83.76 22.6642C84.1927 21.7735 84.3419 20.7715 84.1874 19.7934C84.0329 18.8153 83.5822 17.9081 82.896 17.1942L75.987 10.2852C75.2731 9.59922 74.3661 9.14862 73.3882 8.99413C72.4103 8.83964 71.4086 8.98869 70.518 9.42119L63.033 13.4512L58.715 11.7242L56.124 3.66419C55.8146 2.75841 55.2348 1.96932 54.4628 1.40337C53.6909 0.837423 52.7639 0.521838 51.807 0.499186H42.019C41.0432 0.490443 40.0973 0.835527 39.3564 1.47056C38.6154 2.10559 38.1297 2.98755 37.989 3.95319L35.398 12.0132C33.7649 12.2836 32.2003 12.8703 30.792 13.7402L23.307 9.71019C22.4164 9.27769 21.4147 9.12864 20.4368 9.28313C19.4589 9.43762 18.5519 9.88822 17.838 10.5742L10.929 17.4832C10.243 18.1971 9.79244 19.1041 9.63795 20.082C9.48346 21.0599 9.63251 22.0616 10.065 22.9522L13.807 30.1522C13.231 31.5912 12.656 33.3192 12.08 34.7582L4.02 37.3492C3.11435 37.6584 2.32527 38.2378 1.75916 39.0093C1.19305 39.7809 0.877134 40.7075 0.854004 41.6642V51.4522C0.881375 52.4498 1.23347 53.4112 1.85683 54.1905C2.4802 54.9698 3.3408 55.5244 4.308 55.7702L12.368 58.3612L14.095 62.6792L10.065 70.1642C9.63251 71.0547 9.48346 72.0565 9.63795 73.0344C9.79244 74.0123 10.243 74.9193 10.929 75.6332L17.838 82.5422C18.5519 83.2281 19.4589 83.6787 20.4368 83.8332C21.4147 83.9877 22.4164 83.8387 23.307 83.4062L30.792 79.3762L35.11 81.0992L37.701 89.4472C38.0102 90.3535 38.59 91.1431 39.3622 91.7095C40.1343 92.2758 41.0617 92.5916 42.019 92.6142H51.807C52.7643 92.5916 53.6917 92.2758 54.4638 91.7095C55.236 91.1431 55.8158 90.3535 56.125 89.4472L58.716 81.0992L63.034 79.3722L70.519 83.4022C71.4096 83.8347 72.4113 83.9837 73.3892 83.8292C74.3671 83.6748 75.2741 83.2242 75.988 82.5382L82.897 75.6292C83.583 74.9153 84.0336 74.0083 84.1881 73.0304C84.3425 72.0525 84.1935 71.0508 83.761 70.1602L79.731 62.6752L81.454 58.3612L89.802 55.7702C90.7083 55.461 91.4979 54.8812 92.0643 54.109C92.6306 53.3369 92.9464 52.4095 92.969 51.4522V41.6642C92.9489 40.6312 92.6046 39.6308 91.9847 38.8042C91.3649 37.9777 90.501 37.3669 89.515 37.0582H89.517ZM87.217 50.5882L76.854 53.7552L76.566 55.1942L73.973 61.2392L73.109 62.6782L78.291 72.1782L72.534 77.9352L63.034 72.7532L61.595 73.6172C59.6917 74.721 57.662 75.591 55.55 76.2082L54.11 76.4992L50.943 86.8592H42.883L39.716 76.4992L38.277 76.2112L32.232 73.6202L30.793 72.7562L21.293 77.9382L15.536 72.1812L20.718 62.6812L19.854 61.2392C18.7501 59.3358 17.8802 57.3061 17.263 55.1942L16.975 53.7552L6.611 50.5882V42.5282L16.399 39.6492L16.975 38.2102C17.5373 35.9881 18.4096 33.8562 19.566 31.8772L20.43 30.4382L15.536 20.9382L21.293 15.1812L30.505 20.3632L31.944 19.4992C33.923 18.3427 36.0549 17.4705 38.277 16.9082L39.716 16.3322L42.883 6.25619H50.943L54.11 16.3312L55.549 16.9072C57.661 17.5247 59.6907 18.395 61.594 19.4992L63.033 20.3632L72.533 15.1812L78.29 20.9382L73.108 30.4382L73.972 31.8772C75.0759 33.7805 75.9458 35.8102 76.563 37.9222L76.854 39.3612L87.214 42.5282L87.217 50.5882Z" fill="#3C3C3B"/>
</svg>
