<svg width="77" height="88" viewBox="0 0 77 88" fill="none" xmlns="http://www.w3.org/2000/svg">
<path d="M38.096 41.026C42.1531 41.026 46.119 39.823 49.4923 37.569C52.8656 35.3151 55.4948 32.1114 57.0475 28.3632C58.6001 24.615 59.0063 20.4906 58.2149 16.5115C57.4235 12.5324 55.4699 8.87732 52.6012 6.00848C49.7325 3.13965 46.0776 1.18589 42.0985 0.394283C38.1194 -0.397329 33.995 0.00875413 30.2467 1.56118C26.4984 3.11361 23.2947 5.74266 21.0406 9.11587C18.7864 12.4891 17.5832 16.455 17.583 20.512C17.5829 23.2059 18.1134 25.8734 19.1442 28.3623C20.175 30.8512 21.686 33.1126 23.5908 35.0175C25.4956 36.9225 27.757 38.4335 30.2458 39.4645C32.7346 40.4954 35.4021 41.026 38.096 41.026ZM38.096 5.86001C40.9939 5.86001 43.8267 6.71933 46.2362 8.32932C48.6457 9.9393 50.5237 12.2276 51.6327 14.9049C52.7417 17.5822 53.0318 20.5283 52.4665 23.3705C51.9011 26.2127 50.5057 28.8234 48.4565 30.8725C46.4074 32.9217 43.7967 34.3171 40.9545 34.8825C38.1123 35.4478 35.1662 35.1577 32.4889 34.0487C29.8116 32.9397 27.5233 31.0617 25.9133 28.6522C24.3033 26.2427 23.444 23.4099 23.444 20.512C23.444 16.6261 24.9877 12.8993 27.7355 10.1515C30.4833 7.4037 34.2101 5.86001 38.096 5.86001Z" fill="#3C3C3B"/>
<path d="M74.639 62.6236C69.9394 57.6565 64.2762 53.7 57.9954 50.996C51.7147 48.2921 44.9485 46.8975 38.1105 46.8975C31.2725 46.8975 24.5063 48.2921 18.2256 50.996C11.9449 53.7 6.28159 57.6565 1.58201 62.6236C0.563465 63.7118 -0.00223412 65.1471 6.63141e-06 66.6376V82.0526C6.63141e-06 83.6071 0.617503 85.0978 1.71665 86.197C2.8158 87.2961 4.30657 87.9136 5.86101 87.9136H70.331C71.8854 87.9136 73.3762 87.2961 74.4754 86.197C75.5745 85.0978 76.192 83.6071 76.192 82.0526V66.6376C76.2021 65.1511 75.647 63.7163 74.639 62.6236ZM70.331 82.0526H5.86101V66.6086C10.0141 62.2354 15.0137 58.7531 20.5554 56.3734C26.097 53.9937 32.065 52.7666 38.096 52.7666C44.127 52.7666 50.095 53.9937 55.6367 56.3734C61.1784 58.7531 66.1779 62.2354 70.331 66.6086V82.0526Z" fill="#3C3C3B"/>
</svg>
