<svg width="10" height="18" viewBox="0 0 10 18" fill="none" xmlns="http://www.w3.org/2000/svg">
<path d="M0.00308086 9.01407C0.00410286 9.31838 0.121078 9.61132 0.331043 9.8354L7.47171 17.5361C7.72832 17.8008 8.07505 17.964 8.44618 17.9947C8.8173 18.0254 9.18701 17.9215 9.48521 17.7027C9.62754 17.6023 9.74648 17.4734 9.83416 17.3245C9.92183 17.1756 9.97625 17.0102 9.99379 16.8391C10.0113 16.668 9.99161 16.4953 9.93591 16.3322C9.88022 16.1692 9.78984 16.0197 9.67075 15.8935L3.26963 9.01407L9.43817 2.13466C9.55508 2.00773 9.64324 1.85794 9.69684 1.69517C9.75044 1.5324 9.76827 1.36034 9.74915 1.19033C9.72733 1.01868 9.66966 0.853283 9.57974 0.704471C9.48981 0.55566 9.36956 0.42663 9.2265 0.325439C8.9204 0.0851398 8.53112 -0.0292457 8.1407 0.00638926C7.75375 0.0362622 7.39471 0.215532 7.14244 0.504823L0.246112 8.20556C0.0684408 8.43756 -0.017858 8.72466 0.00308086 9.01407Z" fill="#3C3C3B"/>
</svg>
