<svg width="22" height="21" viewBox="0 0 22 21" fill="none" xmlns="http://www.w3.org/2000/svg">
<path d="M0 21V2.03774C0 1.4717 0.19828 0.990566 0.594841 0.59434C0.991402 0.198113 1.47294 0 2.03946 0H19.4881C20.0546 0 20.5362 0.198113 20.9327 0.59434C21.3293 0.990566 21.5276 1.4717 21.5276 2.03774V14.9434C21.5276 15.5094 21.3293 15.9906 20.9327 16.3868C20.5362 16.783 20.0546 16.9811 19.4881 16.9811H4.02226L0 21ZM1.69955 16.8962L3.31411 15.283H19.4881C19.5825 15.283 19.663 15.2498 19.7295 15.1834C19.7952 15.1177 19.828 15.0377 19.828 14.9434V2.03774C19.828 1.9434 19.7952 1.86302 19.7295 1.7966C19.663 1.73094 19.5825 1.69811 19.4881 1.69811H2.03946C1.94504 1.69811 1.86497 1.73094 1.79925 1.7966C1.73278 1.86302 1.69955 1.9434 1.69955 2.03774V16.8962ZM1.69955 2.03774V1.69811V16.8962V2.03774Z" fill="#3C3C3B"/>
</svg>
