<svg width="26" height="30" viewBox="0 0 26 30" fill="none" xmlns="http://www.w3.org/2000/svg">
<path d="M24.8182 0H4.72727C3.47472 0.00380378 2.27458 0.491288 1.38889 1.35602C0.503198 2.22075 0.00389599 3.39248 0 4.61538V28.8462C0 29.1522 0.124513 29.4457 0.346147 29.662C0.567781 29.8784 0.868381 30 1.18182 30H22.4545C22.768 30 23.0686 29.8784 23.2902 29.662C23.5119 29.4457 23.6364 29.1522 23.6364 28.8462C23.6364 28.5401 23.5119 28.2466 23.2902 28.0303C23.0686 27.8139 22.768 27.6923 22.4545 27.6923H2.36364C2.36364 27.0803 2.61266 26.4933 3.05593 26.0605C3.4992 25.6277 4.1004 25.3846 4.72727 25.3846H24.8182C25.1316 25.3846 25.4322 25.2631 25.6539 25.0467C25.8755 24.8303 26 24.5368 26 24.2308V1.15385C26 0.847827 25.8755 0.554342 25.6539 0.337954C25.4322 0.121566 25.1316 0 24.8182 0ZM11.8182 2.30769H18.9091V12.6923L16.0727 10.6154C15.8672 10.4678 15.6188 10.3882 15.3636 10.3882C15.1085 10.3882 14.8601 10.4678 14.6545 10.6154L11.8182 12.6923V2.30769ZM23.6364 23.0769H4.72727C3.89747 23.0788 3.08262 23.2926 2.36364 23.6971V4.61538C2.36364 4.00335 2.61266 3.41638 3.05593 2.9836C3.4992 2.55082 4.1004 2.30769 4.72727 2.30769H9.45455V15C9.45455 15.2143 9.51566 15.4243 9.63105 15.6066C9.74644 15.7889 9.91153 15.9362 10.1078 16.032C10.3041 16.1279 10.5239 16.1684 10.7425 16.1492C10.9611 16.1299 11.1699 16.0516 11.3455 15.9231L15.3636 12.9808L19.3818 15.9231C19.5848 16.0758 19.8347 16.1571 20.0909 16.1538C20.2742 16.15 20.455 16.1108 20.6227 16.0385C20.8173 15.9391 20.9806 15.79 21.095 15.6071C21.2095 15.4242 21.2709 15.2144 21.2727 15V2.30769H23.6364V23.0769Z" fill="#925D5E"/>
</svg>
