<svg width="30" height="30" viewBox="0 0 30 30" fill="none" xmlns="http://www.w3.org/2000/svg">
<path d="M10.7574 14.7071C11.1479 14.3166 11.7811 14.3166 12.1716 14.7071L15 17.5355L17.8284 14.7071C18.2189 14.3166 18.8521 14.3166 19.2426 14.7071C19.6331 15.0976 19.6331 15.7308 19.2426 16.1213L16.4142 18.9497L19.2427 21.7782C19.6332 22.1687 19.6332 22.8018 19.2427 23.1924C18.8521 23.5829 18.219 23.5829 17.8284 23.1924L15 20.3639L12.1716 23.1924C11.781 23.5829 11.1479 23.5829 10.7573 23.1924C10.3668 22.8019 10.3668 22.1687 10.7573 21.7782L13.5858 18.9497L10.7574 16.1213C10.3668 15.7308 10.3668 15.0976 10.7574 14.7071Z" fill="#925D5E"/>
<path fill-rule="evenodd" clip-rule="evenodd" d="M3.33333 30C2.41667 30 1.63167 29.7065 0.978333 29.1195C0.326111 28.5315 0 27.825 0 27V6C0 5.175 0.326111 4.469 0.978333 3.882C1.63167 3.294 2.41667 3 3.33333 3H5V1.4625C5 1.0375 5.15944 0.6875 5.47833 0.4125C5.79833 0.1375 6.19444 0 6.66667 0C7.13889 0 7.535 0.1435 7.855 0.4305C8.17389 0.7185 8.33333 1.075 8.33333 1.5V3H21.6667V1.4625C21.6667 1.0375 21.8267 0.6875 22.1467 0.4125C22.4656 0.1375 22.8611 0 23.3333 0C23.8056 0 24.2011 0.1435 24.52 0.4305C24.84 0.7185 25 1.075 25 1.5V3H26.6667C27.5833 3 28.3683 3.294 29.0217 3.882C29.6739 4.469 30 5.175 30 6V27C30 27.825 29.6739 28.5315 29.0217 29.1195C28.3683 29.7065 27.5833 30 26.6667 30H3.33333ZM3.33333 12V27H26.6667V12H3.33333ZM3.33333 9H26.6667V6H3.33333V9Z" fill="#925D5E"/>
</svg>
