<svg width="30" height="30" viewBox="0 0 30 30" fill="none" xmlns="http://www.w3.org/2000/svg">
<path d="M3.33333 30C2.41667 30 1.63167 29.7065 0.978333 29.1195C0.326111 28.5315 0 27.825 0 27V6C0 5.175 0.326111 4.469 0.978333 3.882C1.63167 3.294 2.41667 3 3.33333 3H5V1.4625C5 1.0375 5.15944 0.6875 5.47833 0.4125C5.79833 0.1375 6.19444 0 6.66667 0C7.13889 0 7.535 0.1435 7.855 0.4305C8.17389 0.7185 8.33333 1.075 8.33333 1.5V3H21.6667V1.4625C21.6667 1.0375 21.8267 0.6875 22.1467 0.4125C22.4656 0.1375 22.8611 0 23.3333 0C23.8056 0 24.2011 0.1435 24.52 0.4305C24.84 0.7185 25 1.075 25 1.5V3H26.6667C27.5833 3 28.3683 3.294 29.0217 3.882C29.6739 4.469 30 5.175 30 6V27C30 27.825 29.6739 28.5315 29.0217 29.1195C28.3683 29.7065 27.5833 30 26.6667 30H3.33333ZM3.33333 27H26.6667V12H3.33333V27ZM3.33333 9H26.6667V6H3.33333V9Z" fill="#925D5E"/>
<path d="M13.575 20.175L19.475 14.275C19.6583 14.0917 19.8917 14 20.175 14C20.4583 14 20.6917 14.0917 20.875 14.275C21.0583 14.4583 21.15 14.6917 21.15 14.975C21.15 15.2583 21.0583 15.4917 20.875 15.675L14.275 22.275C14.075 22.475 13.8417 22.575 13.575 22.575C13.3083 22.575 13.075 22.475 12.875 22.275L10.275 19.675C10.0917 19.4917 10 19.2583 10 18.975C10 18.6917 10.0917 18.4583 10.275 18.275C10.4583 18.0917 10.6917 18 10.975 18C11.2583 18 11.4917 18.0917 11.675 18.275L13.575 20.175Z" fill="#925D5E"/>
</svg>
