<svg width="30" height="30" viewBox="0 0 30 30" fill="none" xmlns="http://www.w3.org/2000/svg">
<path d="M15 27C21.6 27 27 21.6 27 15C27 8.4 21.6 3 15 3C8.4 3 3 8.4 3 15C3 21.6 8.4 27 15 27ZM15 0C23.25 0 30 6.75 30 15C30 23.25 23.25 30 15 30C6.75 30 0 23.25 0 15C0 6.75 6.75 0 15 0ZM21.5416 17.3176C22.0729 17.6127 22.2684 18.2801 21.9802 18.8153C21.688 19.3581 21.0097 19.5591 20.4689 19.2632L13.5 15.45V8.625C13.5 8.00368 14.0037 7.5 14.625 7.5C15.2463 7.5 15.75 8.00368 15.75 8.625V14.1L21.5416 17.3176Z" fill="#925D5E"/>
</svg>
