<svg width="33" height="30" viewBox="0 0 33 30" fill="none" xmlns="http://www.w3.org/2000/svg">
<path d="M16.1046 14.1116C19.0229 14.1116 21.2927 11.7337 21.2927 8.81541C21.2927 5.89712 18.9148 3.62734 15.9965 3.62734C13.0782 3.62734 10.8085 6.0052 10.8085 8.81541C10.8085 11.7337 13.1863 14.1116 16.1046 14.1116ZM15.9965 5.78904C16.1046 5.78904 16.1046 5.78904 15.9965 5.78904C17.7259 5.78904 19.131 7.19414 19.131 8.92349C19.131 10.6528 17.7259 11.9499 15.9965 11.9499C14.2672 11.9499 12.9702 10.5448 12.9702 8.92349C12.9702 7.19414 14.3753 5.78904 15.9965 5.78904Z" fill="#925D5E"/>
<path d="M32.1012 13.463C30.0475 11.6256 27.3454 10.6528 24.5352 10.7609H23.6705C23.4544 11.6256 23.1301 12.3822 22.6978 13.0307C23.3463 12.9226 23.8867 12.9226 24.5352 12.9226C26.4976 12.8193 28.4601 13.4069 30.0452 14.4968C30.184 14.5923 30.2637 14.7515 30.2637 14.92V16.2192C30.2637 16.8161 30.7476 17.3001 31.3446 17.3001C31.9415 17.3001 32.4254 16.8161 32.4254 16.2192V14.2459C32.4254 13.9522 32.3088 13.6707 32.1012 13.463Z" fill="#925D5E"/>
<path d="M22.0493 3.84351C22.5897 2.5465 24.1029 1.89799 25.508 2.43841C26.805 2.97883 27.4535 4.49202 26.9131 5.89712C26.4807 6.86988 25.508 7.51839 24.5352 7.51839C24.3191 7.51839 23.9948 7.51839 23.7786 7.41031C23.8867 7.95073 23.8867 8.49115 23.8867 8.92349V9.572C24.1029 9.572 24.3191 9.68008 24.5352 9.68008C27.2373 9.68008 29.399 7.51839 29.399 4.92436C29.399 2.22224 27.2373 0.0605485 24.6433 0.0605485C22.914 0.0605485 21.4008 0.925226 20.5361 2.43841C21.0765 2.76267 21.6169 3.195 22.0493 3.84351Z" fill="#925D5E"/>
<path d="M9.72762 13.1388C9.29528 12.4903 8.97103 11.7337 8.75486 10.869H7.89018C5.07998 10.7609 2.37786 11.7337 0.324254 13.463C0.116638 13.6707 0 13.9523 0 14.2459V16.5258C0 16.9534 0.346661 17.3001 0.774288 17.3001H1.08085C1.67778 17.3001 2.16169 16.8161 2.16169 16.2192V15.9312C2.16169 15.1304 2.54681 14.3629 3.25499 13.989C4.69573 13.2283 6.25885 12.8368 7.89018 12.9226C8.53869 12.9226 9.1872 13.0307 9.72762 13.1388Z" fill="#925D5E"/>
<path d="M7.89018 9.572C8.10635 9.572 8.32252 9.572 8.53869 9.46391V8.81541C8.53869 8.27498 8.53869 7.73456 8.64677 7.30222C8.4306 7.41031 8.10635 7.41031 7.89018 7.41031C6.48508 7.41031 5.29615 6.22137 5.29615 4.81627C5.29615 3.41117 6.48508 2.22224 7.89018 2.22224C8.97103 2.22224 9.94379 2.87075 10.3761 3.84351C10.8085 3.30309 11.457 2.76266 11.9974 2.33033C10.5923 0.0605481 7.67401 -0.696045 5.40423 0.709056C3.13445 2.11416 2.37786 5.03244 3.78296 7.30222C4.64764 8.70732 6.16083 9.572 7.89018 9.572Z" fill="#925D5E"/>
<path fill-rule="evenodd" clip-rule="evenodd" d="M25.0756 20.8883C25.0756 20.2833 24.8571 19.6927 24.4167 19.2779C22.2673 17.2531 19.2499 15.8514 16.3208 15.949C13.3917 15.8514 10.3743 17.2531 8.22489 19.2779C7.78452 19.6927 7.56593 20.2833 7.56593 20.8883V28.1626C7.56593 29.1353 8.32252 30 9.40337 30H23.2382C24.211 30 25.0756 29.1353 25.0756 28.1626V20.8883ZM9.72762 27.8383H22.8059V21.2084C22.8059 20.8859 22.6803 20.5736 22.44 20.3587C20.7493 18.8466 18.5351 18.01 16.3208 18.1107C14.0062 18.1107 11.7853 18.8603 10.0943 20.3594C9.85298 20.5734 9.72762 20.8859 9.72762 21.2084V27.8383Z" fill="#925D5E"/>
</svg>
