<svg width="15" height="15" viewBox="0 0 15 15" fill="none" xmlns="http://www.w3.org/2000/svg">
<path d="M7.5 14.0625C5.75952 14.0625 4.09032 13.3711 2.85961 12.1404C1.6289 10.9097 0.9375 9.24048 0.9375 7.5C0.9375 5.75952 1.6289 4.09032 2.85961 2.85961C4.09032 1.6289 5.75952 0.9375 7.5 0.9375C9.24048 0.9375 10.9097 1.6289 12.1404 2.85961C13.3711 4.09032 14.0625 5.75952 14.0625 7.5C14.0625 9.24048 13.3711 10.9097 12.1404 12.1404C10.9097 13.3711 9.24048 14.0625 7.5 14.0625ZM7.5 15C9.48912 15 11.3968 14.2098 12.8033 12.8033C14.2098 11.3968 15 9.48912 15 7.5C15 5.51088 14.2098 3.60322 12.8033 2.1967C11.3968 0.790176 9.48912 0 7.5 0C5.51088 0 3.60322 0.790176 2.1967 2.1967C0.790176 3.60322 0 5.51088 0 7.5C0 9.48912 0.790176 11.3968 2.1967 12.8033C3.60322 14.2098 5.51088 15 7.5 15Z" fill="#FA4200"/>
<path d="M6.56445 10.3123C6.56445 10.1892 6.5887 10.0673 6.63582 9.95354C6.68293 9.8398 6.75199 9.73645 6.83904 9.64939C6.9261 9.56234 7.02944 9.49328 7.14319 9.44617C7.25693 9.39906 7.37884 9.37481 7.50195 9.37481C7.62507 9.37481 7.74698 9.39906 7.86072 9.44617C7.97446 9.49328 8.07781 9.56234 8.16487 9.64939C8.25192 9.73645 8.32098 9.8398 8.36809 9.95354C8.4152 10.0673 8.43945 10.1892 8.43945 10.3123C8.43945 10.5609 8.34068 10.7994 8.16487 10.9752C7.98905 11.151 7.75059 11.2498 7.50195 11.2498C7.25331 11.2498 7.01486 11.151 6.83904 10.9752C6.66323 10.7994 6.56445 10.5609 6.56445 10.3123ZM6.65633 4.68262C6.64384 4.56434 6.65636 4.44477 6.69308 4.33164C6.72979 4.21852 6.78988 4.11438 6.86944 4.02598C6.949 3.93758 7.04626 3.86689 7.1549 3.81851C7.26354 3.77012 7.38115 3.74512 7.50008 3.74512C7.61901 3.74512 7.73661 3.77012 7.84526 3.81851C7.9539 3.86689 8.05116 3.93758 8.13072 4.02598C8.21028 4.11438 8.27036 4.21852 8.30708 4.33164C8.34379 4.44477 8.35631 4.56434 8.34383 4.68262L8.0157 7.97043C8.00468 8.09959 7.94558 8.21991 7.8501 8.30759C7.75462 8.39527 7.62971 8.44392 7.50008 8.44392C7.37045 8.44392 7.24554 8.39527 7.15006 8.30759C7.05458 8.21991 6.99548 8.09959 6.98445 7.97043L6.65633 4.68262Z" fill="#FA4200"/>
</svg>
