<svg width="16" height="18" viewBox="0 0 16 18" fill="none" xmlns="http://www.w3.org/2000/svg">
<path d="M-6.99382e-08 2.225C-5.02681e-08 1.775 0.154 1.396 0.462 1.088C0.770666 0.779332 1.15833 0.624999 1.625 0.624999L4.725 0.625L4.725 1.625L1.625 1.625C1.45833 1.625 1.31267 1.68733 1.188 1.812C1.06267 1.93733 1 2.075 1 2.225L0.999999 15.775C0.999999 15.925 1.06267 16.0627 1.188 16.188C1.31267 16.3127 1.45833 16.375 1.625 16.375L14.375 16.375C14.5417 16.375 14.6873 16.3127 14.812 16.188C14.9373 16.0627 15 15.925 15 15.775L15 2.225C15 2.075 14.9373 1.93733 14.812 1.812C14.6873 1.68733 14.5417 1.625 14.375 1.625L11.275 1.625L11.275 0.625L14.375 0.625C14.8417 0.625 15.229 0.779333 15.537 1.088C15.8457 1.396 16 1.775 16 2.225L16 15.775C16 16.225 15.8457 16.6043 15.537 16.913C15.229 17.221 14.8417 17.375 14.375 17.375L1.625 17.375C1.15833 17.375 0.770665 17.221 0.461999 16.913C0.154 16.6043 -6.81898e-07 16.225 -6.62228e-07 15.775L-6.99382e-08 2.225ZM4.075 7.5L4.8 6.8L7.5 9.5L7.5 0.625L8.5 0.625L8.5 9.5L11.2 6.8L11.925 7.5L8 11.425L4.075 7.5Z" fill="white"/>
</svg>
