<svg width="16" height="18" viewBox="0 0 16 18" fill="none" xmlns="http://www.w3.org/2000/svg">
<path d="M16 15.775C16 16.225 15.846 16.604 15.538 16.912C15.2293 17.2207 14.8417 17.375 14.375 17.375L11.275 17.375L11.275 16.375L14.375 16.375C14.5417 16.375 14.6873 16.3127 14.812 16.188C14.9373 16.0627 15 15.925 15 15.775L15 2.225C15 2.075 14.9373 1.93733 14.812 1.812C14.6873 1.68733 14.5417 1.625 14.375 1.625L1.625 1.625C1.45833 1.625 1.31267 1.68733 1.188 1.812C1.06267 1.93733 1 2.075 1 2.225L1 15.775C1 15.925 1.06267 16.0627 1.188 16.188C1.31267 16.3127 1.45833 16.375 1.625 16.375L4.725 16.375L4.725 17.375L1.625 17.375C1.15833 17.375 0.771 17.2207 0.463 16.912C0.154333 16.604 1.37136e-08 16.225 1.90798e-08 15.775L1.80662e-07 2.225C1.86028e-07 1.775 0.154333 1.39567 0.463 1.087C0.771 0.779 1.15833 0.625 1.625 0.625L14.375 0.625C14.8417 0.625 15.2293 0.779 15.538 1.087C15.846 1.39567 16 1.775 16 2.225L16 15.775ZM11.925 10.5L11.2 11.2L8.5 8.5L8.5 17.375L7.5 17.375L7.5 8.5L4.8 11.2L4.075 10.5L8 6.575L11.925 10.5Z" fill="#3C3C3B"/>
</svg>
