<svg width="17" height="16" viewBox="0 0 17 16" fill="none" xmlns="http://www.w3.org/2000/svg">
<path d="M1.725 16C1.275 16 0.896 15.846 0.588 15.538C0.279333 15.2293 0.125 14.8417 0.125 14.375V11.275H1.125V14.375C1.125 14.5417 1.18733 14.6873 1.312 14.812C1.43733 14.9373 1.575 15 1.725 15H15.275C15.425 15 15.5627 14.9373 15.688 14.812C15.8127 14.6873 15.875 14.5417 15.875 14.375V1.625C15.875 1.45833 15.8127 1.31267 15.688 1.188C15.5627 1.06267 15.425 1 15.275 1H1.725C1.575 1 1.43733 1.06267 1.312 1.188C1.18733 1.31267 1.125 1.45833 1.125 1.625V4.725H0.125V1.625C0.125 1.15833 0.279333 0.771 0.588 0.463C0.896 0.154333 1.275 0 1.725 0H15.275C15.725 0 16.1043 0.154333 16.413 0.463C16.721 0.771 16.875 1.15833 16.875 1.625V14.375C16.875 14.8417 16.721 15.2293 16.413 15.538C16.1043 15.846 15.725 16 15.275 16H1.725ZM7 11.925L6.3 11.2L9 8.5H0.125V7.5H9L6.3 4.8L7 4.075L10.925 8L7 11.925Z" fill="#1C1B1F"/>
</svg>
