<svg width="20" height="20" viewBox="0 0 20 20" fill="none" xmlns="http://www.w3.org/2000/svg">
<path fill-rule="evenodd" clip-rule="evenodd" d="M14.753 15.8409C13.1918 17.1562 11.1756 17.9487 8.97435 17.9487C4.01796 17.9487 0 13.9308 0 8.97435C0 4.01796 4.01796 0 8.97435 0C13.9308 0 17.9487 4.01796 17.9487 8.97435C17.9487 11.1756 17.1562 13.1918 15.8409 14.753L19.7747 18.6868C20.0751 18.9872 20.0751 19.4743 19.7747 19.7747C19.4743 20.0751 18.9872 20.0751 18.6868 19.7747L14.753 15.8409ZM1.53846 8.97435C1.53846 4.86762 4.86762 1.53846 8.97435 1.53846C13.0811 1.53846 16.4102 4.86762 16.4102 8.97435C16.4102 10.9853 15.612 12.8097 14.3151 14.1482C14.2837 14.1712 14.2537 14.1969 14.2253 14.2253C14.1969 14.2537 14.1712 14.2837 14.1482 14.3151C12.8097 15.612 10.9853 16.4102 8.97435 16.4102C4.86762 16.4102 1.53846 13.0811 1.53846 8.97435Z" fill="#5F5F5F"/>
</svg>
