<svg width="22" height="23" viewBox="0 0 22 23" fill="none" xmlns="http://www.w3.org/2000/svg">
<path d="M10.551 0.952027C8.46468 0.951433 6.42504 1.56956 4.69003 2.72823C2.95503 3.8869 1.6026 5.53406 0.803785 7.4614C0.00497156 9.38875 -0.204342 11.5097 0.202316 13.556C0.608974 15.6023 1.61334 17.4821 3.08838 18.9575C4.56343 20.433 6.4429 21.4379 8.48909 21.8451C10.5353 22.2524 12.6563 22.0437 14.5839 21.2454C16.5114 20.4471 18.159 19.0952 19.3181 17.3605C20.4773 15.6258 21.096 13.5864 21.096 11.5C21.096 8.70304 19.9851 6.02057 18.0076 4.04252C16.0301 2.06448 13.348 0.952822 10.551 0.952027ZM10.551 20.541C8.76303 20.5402 7.01544 20.0093 5.52918 19.0154C4.04293 18.0215 2.88474 16.6092 2.20106 14.9571C1.51738 13.305 1.33891 11.4873 1.68821 9.73376C2.03751 7.98025 2.8989 6.36967 4.16347 5.10566C5.42803 3.84166 7.03899 2.98098 8.79266 2.63246C10.5463 2.28393 12.364 2.46321 14.0158 3.14762C15.6676 3.83202 17.0793 4.99083 18.0726 6.47753C19.0659 7.96423 19.596 9.71206 19.596 11.5C19.5965 12.688 19.3629 13.8644 18.9086 14.962C18.4542 16.0596 17.788 17.057 16.948 17.897C16.1079 18.737 15.1106 19.4032 14.013 19.8576C12.9154 20.312 11.739 20.5456 10.551 20.545V20.541Z" fill="currentColor"/>
<path d="M11.681 17.151C11.687 17.3757 11.6258 17.597 11.5053 17.7868C11.3848 17.9765 11.2105 18.126 11.0046 18.2162C10.7987 18.3063 10.5706 18.333 10.3495 18.2928C10.1284 18.2527 9.92422 18.1475 9.76318 17.9907C9.60213 17.834 9.49149 17.6327 9.4454 17.4127C9.39931 17.1928 9.41987 16.964 9.50444 16.7558C9.58902 16.5476 9.73377 16.3693 9.92019 16.2437C10.1066 16.1182 10.3262 16.0511 10.551 16.051C10.8456 16.0509 11.1285 16.1658 11.3396 16.3713C11.5507 16.5768 11.6732 16.8566 11.681 17.151Z" fill="currentColor"/>
<path d="M11.304 5.47206H10.174C9.72839 5.471 9.28696 5.55799 8.87507 5.72803C8.46318 5.89807 8.08894 6.14781 7.77385 6.46291C7.45875 6.778 7.20901 7.15224 7.03897 7.56413C6.86893 7.97602 6.78194 8.41745 6.783 8.86306V9.24506H8.29V8.86306C8.29 8.36339 8.48849 7.88419 8.84181 7.53087C9.19513 7.17755 9.67433 6.97906 10.174 6.97906H11.304C11.555 6.97327 11.8046 7.01772 12.0382 7.10977C12.2718 7.20183 12.4846 7.33964 12.6642 7.51511C12.8437 7.69058 12.9864 7.90017 13.0838 8.13157C13.1812 8.36296 13.2314 8.61149 13.2314 8.86256C13.2314 9.11362 13.1812 9.36215 13.0838 9.59355C12.9864 9.82494 12.8437 10.0345 12.6642 10.21C12.4846 10.3855 12.2718 10.5233 12.0382 10.6153C11.8046 10.7074 11.555 10.7518 11.304 10.7461H9.796V14.1371H11.303V12.2531C11.7531 12.2608 12.2003 12.1788 12.6185 12.0119C13.0366 11.845 13.4173 11.5965 13.7384 11.2809C14.0594 10.9653 14.3144 10.5889 14.4885 10.1737C14.6626 9.75848 14.7522 9.31277 14.7522 8.86256C14.7522 8.41234 14.6626 7.96664 14.4885 7.55144C14.3144 7.13624 14.0594 6.75986 13.7384 6.44426C13.4173 6.12866 13.0366 5.88015 12.6185 5.71323C12.2003 5.54631 11.7541 5.46433 11.304 5.47206Z" fill="currentColor"/>
</svg>
