<svg width="23" height="23" viewBox="0 0 23 23" fill="none" xmlns="http://www.w3.org/2000/svg">
<path d="M11.5 23C17.8513 23 23 17.8513 23 11.5C23 5.14873 17.8513 0 11.5 0C5.14873 0 0 5.14873 0 11.5C0 17.8513 5.14873 23 11.5 23Z" fill="#AFEA95"/>
<path fill-rule="evenodd" clip-rule="evenodd" d="M10.592 7.18099C10.592 7.05502 10.6421 6.9342 10.7311 6.84512C10.8202 6.75604 10.941 6.70599 11.067 6.70599H15.819C15.945 6.70599 16.0658 6.75604 16.1549 6.84512C16.244 6.9342 16.294 7.05502 16.294 7.18099V11.931C16.294 12.057 16.244 12.1778 16.1549 12.2669C16.0658 12.3559 15.945 12.406 15.819 12.406C15.693 12.406 15.5722 12.3559 15.4831 12.2669C15.3941 12.1778 15.344 12.057 15.344 11.931V7.65599H11.067C10.941 7.65599 10.8202 7.60595 10.7311 7.51687C10.6421 7.42779 10.592 7.30697 10.592 7.18099Z" fill="#03781D"/>
<path fill-rule="evenodd" clip-rule="evenodd" d="M16.156 6.845C16.2003 6.88913 16.2354 6.94157 16.2594 6.99931C16.2834 7.05706 16.2957 7.11897 16.2957 7.1815C16.2957 7.24402 16.2834 7.30593 16.2594 7.36368C16.2354 7.42142 16.2003 7.47386 16.156 7.518L7.602 16.072C7.5121 16.158 7.39209 16.2054 7.26769 16.204C7.14328 16.2026 7.02436 16.1526 6.93638 16.0646C6.84841 15.9766 6.79838 15.8577 6.797 15.7333C6.79562 15.6089 6.843 15.4889 6.929 15.399L15.483 6.845C15.5271 6.8007 15.5796 6.76555 15.6373 6.74157C15.6951 6.71759 15.757 6.70525 15.8195 6.70525C15.882 6.70525 15.9439 6.71759 16.0017 6.74157C16.0594 6.76555 16.1119 6.8007 16.156 6.845Z" fill="#03781D"/>
</svg>
