<svg width="22" height="22" viewBox="0 0 22 22" fill="none" xmlns="http://www.w3.org/2000/svg">
<path d="M8.59174 22L8.16655 18.4556C7.78186 18.3537 7.36194 18.1757 6.90679 17.9214C6.45083 17.6664 6.07099 17.3963 5.76729 17.1111L2.51765 18.4861L0.239868 14.5139L3.06432 12.375C3.02382 12.1713 2.9886 11.9521 2.95863 11.7174C2.92785 11.4836 2.91247 11.2546 2.91247 11.0306C2.91247 10.8269 2.92785 10.6077 2.95863 10.373C2.9886 10.1391 3.02382 9.88981 3.06432 9.625L0.239868 7.48611L2.51765 3.575L5.73692 4.91944C6.10136 4.61389 6.49132 4.33889 6.90679 4.09444C7.32144 3.85 7.73124 3.66667 8.13618 3.54444L8.59174 0H13.1473L13.5725 3.54444C14.0382 3.72778 14.4484 3.9213 14.8031 4.125C15.157 4.3287 15.5263 4.59352 15.911 4.91944L19.2214 3.575L21.4992 7.48611L18.5836 9.68611C18.6646 9.93056 18.7051 10.1599 18.7051 10.3742V11C18.7051 11.1833 18.7002 11.3821 18.6905 11.5964C18.68 11.8099 18.6444 12.0694 18.5836 12.375L21.4384 14.5139L19.1607 18.4861L15.911 17.0806C15.5263 17.4065 15.1469 17.6815 14.7727 17.9056C14.3978 18.1296 13.9977 18.313 13.5725 18.4556L13.1473 22H8.59174ZM10.8392 14.0556C11.6895 14.0556 12.4083 13.7602 12.9955 13.1694C13.5826 12.5787 13.8762 11.8556 13.8762 11C13.8762 10.1444 13.5826 9.4213 12.9955 8.83056C12.4083 8.23982 11.6895 7.94444 10.8392 7.94444C9.98878 7.94444 9.27001 8.23982 8.68285 8.83056C8.09569 9.4213 7.80211 10.1444 7.80211 11C7.80211 11.8556 8.09569 12.5787 8.68285 13.1694C9.27001 13.7602 9.98878 14.0556 10.8392 14.0556ZM10.8392 12.8333C10.333 12.8333 9.90293 12.6549 9.54901 12.298C9.19429 11.9419 9.01693 11.5093 9.01693 11C9.01693 10.4907 9.19429 10.0581 9.54901 9.702C9.90293 9.34511 10.333 9.16667 10.8392 9.16667C11.3453 9.16667 11.7758 9.34511 12.1305 9.702C12.4844 10.0581 12.6614 10.4907 12.6614 11C12.6614 11.5093 12.4844 11.9419 12.1305 12.298C11.7758 12.6549 11.3453 12.8333 10.8392 12.8333ZM9.6547 20.7778H12.0236L12.4792 17.4778C13.0866 17.3148 13.6385 17.0907 14.135 16.8056C14.6306 16.5204 15.1315 16.1231 15.6377 15.6139L18.6444 16.9278L19.8592 14.85L17.2169 12.8333C17.3182 12.487 17.3842 12.166 17.415 11.8702C17.4449 11.5753 17.4599 11.2852 17.4599 11C17.4599 10.6944 17.4449 10.404 17.415 10.1286C17.3842 9.85396 17.3182 9.54352 17.2169 9.19722L19.9199 7.15L18.7051 5.07222L15.6073 6.38611C15.2429 5.9787 14.7622 5.59656 14.1653 5.23967C13.5676 4.88359 12.9955 4.64444 12.4488 4.52222L12.0843 1.22222H9.6547L9.29026 4.52222C8.68285 4.64444 8.12079 4.85304 7.60409 5.148C7.0882 5.44378 6.57717 5.8463 6.07099 6.35556L3.03395 5.07222L1.81913 7.15L4.46136 9.13611C4.36012 9.40093 4.28926 9.6963 4.24877 10.0222C4.20827 10.3481 4.18803 10.6843 4.18803 11.0306C4.18803 11.3361 4.20827 11.6417 4.24877 11.9472C4.28926 12.2528 4.35 12.5481 4.43099 12.8333L1.81913 14.85L3.03395 16.9278L6.04062 15.6444C6.52655 16.1333 7.0226 16.5204 7.52877 16.8056C8.03495 17.0907 8.61199 17.3148 9.25989 17.4778L9.6547 20.7778Z" fill="#3C3C3B"/>
</svg>
