<svg width="89" height="89" viewBox="0 0 89 89" fill="none" xmlns="http://www.w3.org/2000/svg">
<path fill-rule="evenodd" clip-rule="evenodd" d="M0.148926 3.52961C0.148926 2.75252 0.457622 2.00727 1.0071 1.45779C1.55658 0.908305 2.30184 0.599609 3.07893 0.599609H11.8699C12.5236 0.599871 13.1585 0.818728 13.6734 1.22136C14.1884 1.624 14.554 2.18728 14.7119 2.82161L17.0879 12.3216H85.1329C85.5659 12.3218 85.9935 12.4179 86.385 12.6031C86.7764 12.7883 87.1219 13.0579 87.3966 13.3926C87.6714 13.7273 87.8685 14.1187 87.9739 14.5387C88.0792 14.9587 88.0902 15.3969 88.0059 15.8216L82.1489 45.1296C82.0208 45.7686 81.6832 46.3466 81.1897 46.7722C80.6961 47.1978 80.0748 47.4467 79.4239 47.4796L24.3489 50.2496L26.0289 59.2126H76.3409C77.1181 59.2126 77.8635 59.5214 78.4131 60.0709C78.9627 60.6205 79.2714 61.3659 79.2714 62.1431C79.2714 62.9203 78.9627 63.6657 78.4131 64.2153C77.8635 64.7649 77.1181 65.0736 76.3409 65.0736H23.5929C22.9097 65.0731 22.2481 64.8339 21.7226 64.3973C21.197 63.9607 20.8406 63.3542 20.7149 62.6826L11.9289 15.8826L9.58593 6.46061H3.07893C2.69407 6.46061 2.31298 6.38479 1.95743 6.23748C1.60188 6.09017 1.27884 5.87426 1.00675 5.60208C0.734661 5.3299 0.518859 5.00678 0.371672 4.65118C0.224484 4.29558 0.148795 3.91447 0.148926 3.52961ZM18.3279 18.1826L23.2489 44.4346L76.8409 41.7436L81.5589 18.1826H18.3279ZM29.4489 65.0696C27.1307 65.0706 24.8649 65.7589 22.9379 67.0476C21.0109 68.3362 19.5092 70.1673 18.6228 72.3093C17.7363 74.4513 17.5049 76.808 17.9578 79.0815C18.4106 81.355 19.5274 83.4432 21.167 85.0821C22.8065 86.7209 24.8952 87.8369 27.1689 88.2887C29.4426 88.7406 31.7993 88.5082 33.9409 87.6208C36.0825 86.7335 37.913 85.231 39.2008 83.3035C40.4886 81.3759 41.1759 79.1098 41.1759 76.7916C41.1759 75.2518 40.8726 73.7271 40.2832 72.3046C39.6938 70.8821 38.8299 69.5897 37.7409 68.5011C36.6518 67.4126 35.359 66.5492 33.9363 65.9605C32.5135 65.3717 30.9887 65.069 29.4489 65.0696ZM70.4759 65.0696C68.1577 65.0704 65.8918 65.7586 63.9646 67.0471C62.0375 68.3356 60.5357 70.1666 59.6491 72.3086C58.7625 74.4505 58.5309 76.8073 58.9837 79.0809C59.4364 81.3545 60.5531 83.4428 62.1926 85.0817C63.8321 86.7207 65.9208 87.8367 68.1945 88.2887C70.4683 88.7406 72.825 88.5083 74.9667 87.6209C77.1084 86.7336 78.9388 85.2312 80.2267 83.3036C81.5145 81.376 82.2019 79.1098 82.2019 76.7916C82.2019 73.6827 80.9669 70.7012 78.7686 68.5029C76.5703 66.3046 73.5888 65.0696 70.4799 65.0696H70.4759ZM29.4489 70.9306C28.2897 70.9306 27.1566 71.2744 26.1927 71.9184C25.2289 72.5624 24.4777 73.4777 24.0341 74.5487C23.5905 75.6197 23.4744 76.7981 23.7005 77.935C23.9267 79.072 24.4849 80.1163 25.3046 80.936C26.1242 81.7556 27.1686 82.3138 28.3055 82.54C29.4424 82.7661 30.6209 82.6501 31.6918 82.2065C32.7628 81.7629 33.6782 81.0116 34.3222 80.0478C34.9662 79.084 35.3099 77.9508 35.3099 76.7916C35.3099 75.2372 34.6924 73.7464 33.5933 72.6473C32.4941 71.5481 31.0034 70.9306 29.4489 70.9306ZM70.4759 70.9306C69.3167 70.9306 68.1836 71.2744 67.2197 71.9184C66.2559 72.5624 65.5047 73.4777 65.0611 74.5487C64.6175 75.6197 64.5014 76.7981 64.7275 77.935C64.9537 79.072 65.5119 80.1163 66.3316 80.936C67.1513 81.7556 68.1956 82.3138 69.3325 82.54C70.4694 82.7661 71.6479 82.6501 72.7188 82.2065C73.7898 81.7629 74.7052 81.0116 75.3492 80.0478C75.9932 79.084 76.3369 77.9508 76.3369 76.7916C76.3369 75.2379 75.72 73.7477 74.6217 72.6487C73.5234 71.5496 72.0337 70.9317 70.4799 70.9306H70.4759Z" fill="#3C3C3B"/>
</svg>
