<svg width="106" height="106" viewBox="0 0 106 106" fill="none" xmlns="http://www.w3.org/2000/svg">
<path d="M94.8727 68.387C94.7808 67.3484 95.0611 66.3109 95.6637 65.46C95.8165 65.2029 95.9834 64.9546 96.1637 64.716C100.471 58.3136 102.775 50.7736 102.782 43.057C102.859 20.941 84.1977 3 61.1227 3C40.9987 3 24.2077 16.7 20.2737 34.88C19.6856 37.5737 19.3883 40.3228 19.3867 43.08C19.4026 48.4407 20.4777 53.7455 22.5502 58.6895C24.6227 63.6334 27.6517 68.1191 31.4633 71.8887C35.2748 75.6583 39.7937 78.6376 44.7602 80.6553C49.7268 82.673 55.0431 83.6894 60.4037 83.646C64.2369 83.4724 68.0369 82.8529 71.7267 81.8C74.4387 81.056 77.1267 80.074 77.8197 79.808C78.5328 79.5387 79.2885 79.4002 80.0507 79.399C80.882 79.3963 81.7055 79.5598 82.4727 79.88L96.0727 84.7C96.3707 84.8258 96.6859 84.9064 97.0077 84.939C97.5172 84.939 98.0058 84.7366 98.3661 84.3764C98.7263 84.0161 98.9287 83.5275 98.9287 83.018C98.9123 82.7984 98.8724 82.5811 98.8097 82.37L94.8727 68.387Z" stroke="#3C3C3B" stroke-width="5" stroke-miterlimit="10" stroke-linecap="round"/>
<path d="M7.42749 47.1367C4.28153 52.789 2.75988 59.2011 3.03078 65.6642C3.30168 72.1273 5.35457 78.3896 8.96249 83.7587C9.51549 84.5947 9.82849 85.2427 9.73349 85.6797C9.63849 86.1167 6.87149 100.524 6.87149 100.524C6.80686 100.861 6.83362 101.209 6.94898 101.532C7.06434 101.855 7.26409 102.141 7.52749 102.361C7.87945 102.639 8.31653 102.789 8.76549 102.784C9.0062 102.785 9.24456 102.736 9.46549 102.641L22.9425 97.3637C23.8706 96.9977 24.9061 97.015 25.8215 97.4117C30.4666 99.261 35.4131 100.237 40.4125 100.291C47.1554 100.298 53.7798 98.519 59.6125 95.1357" stroke="#3C3C3B" stroke-width="5" stroke-miterlimit="10" stroke-linecap="round"/>
</svg>
