<svg width="64" height="95" viewBox="0 0 64 95" fill="none" xmlns="http://www.w3.org/2000/svg">
<path fill-rule="evenodd" clip-rule="evenodd" d="M52.5054 46.4138H12.2763C10.7114 46.4558 9.22721 47.1173 8.14966 48.2529C7.07212 49.3885 6.48938 50.9053 6.52944 52.4703V82.751C6.48938 84.3159 7.07212 85.8328 8.14966 86.9684C9.22721 88.1039 10.7114 88.7654 12.2763 88.8074H52.5054C54.0703 88.7654 55.5545 88.1039 56.632 86.9684C57.7096 85.8328 58.2923 84.3159 58.2522 82.751V52.4703C58.2923 50.9053 57.7096 49.3885 56.632 48.2529C55.5545 47.1173 54.0703 46.4558 52.5054 46.4138ZM12.2763 40.3582C5.9283 40.3582 0.781738 45.7807 0.781738 52.4703V82.751C0.781738 89.4405 5.92748 94.8631 12.2763 94.8631H52.5054C58.8534 94.8631 64 89.4405 64 82.751V52.4703C64 45.7807 58.8542 40.3582 52.5054 40.3582H12.2763ZM12.2763 22.1896C12.2763 10.4829 21.2853 0.993164 32.3908 0.993164C43.4964 0.993164 52.5054 10.4829 52.5054 22.1896V40.3582H46.756V22.1896C46.756 13.8276 40.3236 7.04963 32.3884 7.04963C24.4531 7.04963 18.0224 13.8276 18.0224 22.1896V40.3582H12.2763V22.1896Z" fill="#3C3C3B"/>
</svg>
