<svg width="25" height="16" viewBox="0 0 25 16" fill="none" xmlns="http://www.w3.org/2000/svg">
<path d="M20.3333 14C21.4333 14 22.3333 13.1 22.3333 12V2C22.3333 0.9 21.4333 0 20.3333 0H4.33334C3.23334 0 2.33334 0.9 2.33334 2V12C2.33334 13.1 3.23334 14 4.33334 14H1.33334C0.783343 14 0.333344 14.45 0.333344 15C0.333344 15.55 0.783343 16 1.33334 16H23.3333C23.8833 16 24.3333 15.55 24.3333 15C24.3333 14.45 23.8833 14 23.3333 14H20.3333ZM5.33334 2H19.3333C19.8833 2 20.3333 2.45 20.3333 3V11C20.3333 11.55 19.8833 12 19.3333 12H5.33334C4.78334 12 4.33334 11.55 4.33334 11V3C4.33334 2.45 4.78334 2 5.33334 2Z" fill="currentColor"/>
</svg>
