<svg width="21" height="22" viewBox="0 0 21 22" fill="none" xmlns="http://www.w3.org/2000/svg">
<path d="M4.66668 21C6.50763 21 8.00001 19.5076 8.00001 17.6667C8.00001 15.8257 6.50763 14.3333 4.66668 14.3333C2.82573 14.3333 1.33334 15.8257 1.33334 17.6667C1.33334 19.5076 2.82573 21 4.66668 21Z" stroke="currentColor" stroke-width="2" stroke-linecap="round" stroke-linejoin="round"/>
<path d="M13.5556 14.3333L4.66669 1M6.88891 14.3333L10.2222 9.33333M15.7778 1L12.4445 6" stroke="currentColor" stroke-width="2" stroke-linecap="round" stroke-linejoin="round"/>
<path d="M15.7778 21C17.6187 21 19.1111 19.5076 19.1111 17.6667C19.1111 15.8257 17.6187 14.3333 15.7778 14.3333C13.9368 14.3333 12.4445 15.8257 12.4445 17.6667C12.4445 19.5076 13.9368 21 15.7778 21Z" stroke="currentColor" stroke-width="2" stroke-linecap="round" stroke-linejoin="round"/>
</svg>
