<svg width="15" height="8" viewBox="0 0 15 8" fill="none" xmlns="http://www.w3.org/2000/svg">
<path d="M7.98698 7.82432C8.22447 7.82353 8.4531 7.73401 8.62798 7.57332L14.638 2.10832C14.8446 1.91193 14.9719 1.64656 14.9959 1.36253C15.0198 1.07849 14.9387 0.795542 14.768 0.567317C14.6896 0.458392 14.589 0.367362 14.4728 0.300258C14.3566 0.233155 14.2275 0.191511 14.094 0.178085C13.9605 0.164658 13.8256 0.179757 13.6984 0.222379C13.5712 0.265002 13.4545 0.334175 13.356 0.425317L7.98698 5.32432L2.61798 0.603316C2.51891 0.513841 2.40201 0.446371 2.27498 0.405348C2.14795 0.364325 2.01366 0.350682 1.88098 0.365317C1.74701 0.382012 1.61793 0.426149 1.50179 0.494972C1.38565 0.563796 1.28495 0.655826 1.20598 0.765316C1.01844 0.999589 0.929165 1.29752 0.956976 1.59632C0.980291 1.89247 1.1202 2.16725 1.34598 2.36032L7.35598 7.63832C7.53704 7.77429 7.76111 7.84034 7.98698 7.82432Z" fill="#3C3C3B"/>
</svg>
