<svg width="22" height="21" viewBox="0 0 22 21" fill="none" xmlns="http://www.w3.org/2000/svg">
<path d="M15.1 11.1L13.65 9.65001C13.8 8.86667 13.575 8.13334 12.975 7.45001C12.375 6.76667 11.6 6.50001 10.65 6.65001L9.2 5.20001C9.48333 5.06667 9.77067 4.96667 10.062 4.90001C10.354 4.83334 10.6667 4.80001 11 4.80001C12.25 4.80001 13.3127 5.23734 14.188 6.11201C15.0627 6.98734 15.5 8.05001 15.5 9.30001C15.5 9.63334 15.4667 9.94601 15.4 10.238C15.3333 10.5293 15.2333 10.8167 15.1 11.1ZM18.3 14.25L16.85 12.85C17.4833 12.3667 18.046 11.8373 18.538 11.262C19.0293 10.6873 19.45 10.0333 19.8 9.30001C18.9667 7.61667 17.7707 6.27901 16.212 5.28701C14.654 4.29567 12.9167 3.80001 11 3.80001C10.5167 3.80001 10.0417 3.83334 9.575 3.90001C9.10833 3.96667 8.65 4.06667 8.2 4.20001L6.65 2.65001C7.33333 2.36667 8.03333 2.15401 8.75 2.01201C9.46667 1.87067 10.2167 1.80001 11 1.80001C13.5167 1.80001 15.7583 2.49567 17.725 3.88701C19.6917 5.27901 21.1167 7.08334 22 9.30001C21.6167 10.2833 21.1127 11.196 20.488 12.038C19.8627 12.8793 19.1333 13.6167 18.3 14.25ZM18.8 20.4L14.6 16.25C14.0167 16.4333 13.4293 16.571 12.838 16.663C12.246 16.7543 11.6333 16.8 11 16.8C8.48333 16.8 6.24167 16.1043 4.275 14.713C2.30833 13.321 0.883333 11.5167 0 9.30001C0.35 8.41667 0.791667 7.59567 1.325 6.83701C1.85833 6.07901 2.46667 5.40001 3.15 4.80001L0.4 2.00001L1.8 0.600006L20.2 19L18.8 20.4ZM4.55 6.20001C4.06667 6.63334 3.625 7.10834 3.225 7.62501C2.825 8.14167 2.48333 8.70001 2.2 9.30001C3.03333 10.9833 4.229 12.3207 5.787 13.312C7.34567 14.304 9.08333 14.8 11 14.8C11.3333 14.8 11.6583 14.7793 11.975 14.738C12.2917 14.696 12.6167 14.65 12.95 14.6L12.05 13.65C11.8667 13.7 11.6917 13.7373 11.525 13.762C11.3583 13.7873 11.1833 13.8 11 13.8C9.75 13.8 8.68733 13.3627 7.812 12.488C6.93733 11.6127 6.5 10.55 6.5 9.30001C6.5 9.11667 6.51233 8.94167 6.537 8.77501C6.56233 8.60834 6.6 8.43334 6.65 8.25001L4.55 6.20001Z" fill="#9E9E9E"/>
</svg>
