<svg width="25" height="26" viewBox="0 0 25 26" fill="none" xmlns="http://www.w3.org/2000/svg">
<path d="M23.9542 20.8406C23.1822 20.153 22.5063 19.3647 21.9448 18.497C21.3318 17.2992 20.9643 15.9912 20.8641 14.6496V10.6983C20.8694 8.59109 20.1044 6.55451 18.7128 4.97117C17.3212 3.38783 15.3989 2.3667 13.3069 2.09966V1.06783C13.3069 0.784621 13.1943 0.513015 12.9939 0.312759C12.7935 0.112503 12.5216 0 12.2382 0C11.9548 0 11.6829 0.112503 11.4825 0.312759C11.2821 0.513015 11.1695 0.784621 11.1695 1.06783V2.11566C9.09626 2.40195 7.19714 3.42925 5.82385 5.00727C4.45056 6.58529 3.69616 8.60712 3.70038 10.6983V14.6496C3.60012 15.9912 3.23269 17.2992 2.61965 18.497C2.06798 19.3627 1.40298 20.1509 0.642303 20.8406C0.55691 20.9156 0.488471 21.0078 0.44154 21.1113C0.394609 21.2147 0.370261 21.3269 0.370117 21.4405V22.5283C0.370117 22.7405 0.45446 22.9439 0.604591 23.0939C0.754723 23.2439 0.958345 23.3282 1.17066 23.3282H23.4258C23.6381 23.3282 23.8417 23.2439 23.9919 23.0939C24.142 22.9439 24.2264 22.7405 24.2264 22.5283V21.4405C24.2262 21.3269 24.2019 21.2147 24.1549 21.1113C24.108 21.0078 24.0396 20.9156 23.9542 20.8406ZM2.03525 21.7285C2.78008 21.0095 3.43588 20.2039 3.98858 19.3289C4.7608 17.8823 5.21136 16.2862 5.30948 14.6496V10.6983C5.27773 9.76084 5.4351 8.82662 5.77223 7.95124C6.10936 7.07586 6.61934 6.27721 7.27181 5.60285C7.92429 4.92849 8.7059 4.39222 9.57012 4.02596C10.4343 3.65971 11.3635 3.47096 12.3022 3.47096C13.241 3.47096 14.1701 3.65971 15.0344 4.02596C15.8986 4.39222 16.6802 4.92849 17.3327 5.60285C17.9851 6.27721 18.4951 7.07586 18.8322 7.95124C19.1694 8.82662 19.3267 9.76084 19.295 10.6983V14.6496C19.3931 16.2862 19.8437 17.8823 20.6159 19.3289C21.1686 20.2039 21.8244 21.0095 22.5692 21.7285H2.03525Z" fill="#3C3C3B"/>
<path d="M12.3383 26C12.8426 25.9884 13.3266 25.7989 13.7045 25.4652C14.0825 25.1314 14.3302 24.6749 14.4037 24.1763H10.1929C10.2685 24.6884 10.5278 25.1557 10.9224 25.4912C11.3171 25.8266 11.8202 26.0075 12.3383 26Z" fill="#3C3C3B"/>
</svg>
