<svg width="17" height="30" viewBox="0 0 17 30" fill="none" xmlns="http://www.w3.org/2000/svg">
<path d="M8.83333 13.1667C5.05 12.1833 3.83333 11.1667 3.83333 9.58333C3.83333 7.76667 5.51667 6.5 8.33333 6.5C10.7 6.5 11.8833 7.4 12.3167 8.83333C12.5167 9.5 13.0667 10 13.7667 10H14.2667C15.3667 10 16.15 8.91667 15.7667 7.88333C15.0667 5.91667 13.4333 4.28333 10.8333 3.65V2.5C10.8333 1.11667 9.71667 0 8.33333 0C6.95 0 5.83333 1.11667 5.83333 2.5V3.6C2.6 4.3 0 6.4 0 9.61667C0 13.4667 3.18333 15.3833 7.83333 16.5C12 17.5 12.8333 18.9667 12.8333 20.5167C12.8333 21.6667 12.0167 23.5 8.33333 23.5C5.58333 23.5 4.16667 22.5167 3.61667 21.1167C3.36667 20.4667 2.8 20 2.11667 20H1.65C0.533333 20 -0.25 21.1333 0.166667 22.1667C1.11667 24.4833 3.33333 25.85 5.83333 26.3833V27.5C5.83333 28.8833 6.95 30 8.33333 30C9.71667 30 10.8333 28.8833 10.8333 27.5V26.4167C14.0833 25.8 16.6667 23.9167 16.6667 20.5C16.6667 15.7667 12.6167 14.15 8.83333 13.1667Z" fill="#925D5E"/>
</svg>
