<svg width="30" height="30" viewBox="0 0 30 30" fill="none" xmlns="http://www.w3.org/2000/svg">
<path d="M3.33333 30C2.41667 30 1.63167 29.7065 0.978333 29.1195C0.326111 28.5315 0 27.825 0 27V6C0 5.175 0.326111 4.469 0.978333 3.882C1.63167 3.294 2.41667 3 3.33333 3H5V1.4625C5 1.0375 5.15944 0.6875 5.47833 0.4125C5.79833 0.1375 6.19444 0 6.66667 0C7.13889 0 7.535 0.1435 7.855 0.4305C8.17389 0.7185 8.33333 1.075 8.33333 1.5V3H21.6667V1.4625C21.6667 1.0375 21.8267 0.6875 22.1467 0.4125C22.4656 0.1375 22.8611 0 23.3333 0C23.8056 0 24.2011 0.1435 24.52 0.4305C24.84 0.7185 25 1.075 25 1.5V3H26.6667C27.5833 3 28.3683 3.294 29.0217 3.882C29.6739 4.469 30 5.175 30 6V27C30 27.825 29.6739 28.5315 29.0217 29.1195C28.3683 29.7065 27.5833 30 26.6667 30H3.33333ZM3.33333 27H26.6667V12H3.33333V27ZM3.33333 9H26.6667V6H3.33333V9Z" fill="#925D5E"/>
<path d="M14 22.0006C14 21.8694 14.0259 21.7394 14.0761 21.6182C14.1264 21.4969 14.2 21.3868 14.2929 21.294C14.3858 21.2012 14.496 21.1275 14.6173 21.0773C14.7386 21.0271 14.8687 21.0012 15 21.0012C15.1313 21.0012 15.2614 21.0271 15.3827 21.0773C15.504 21.1275 15.6142 21.2012 15.7071 21.294C15.8 21.3868 15.8736 21.4969 15.9239 21.6182C15.9741 21.7394 16 21.8694 16 22.0006C16 22.2657 15.8946 22.5199 15.7071 22.7073C15.5196 22.8947 15.2652 23 15 23C14.7348 23 14.4804 22.8947 14.2929 22.7073C14.1054 22.5199 14 22.2657 14 22.0006ZM14.098 15.9994C14.0847 15.8733 14.098 15.7458 14.1372 15.6252C14.1764 15.5046 14.2405 15.3936 14.3253 15.2994C14.4102 15.2052 14.5139 15.1298 14.6298 15.0782C14.7457 15.0267 14.8711 15 14.998 15C15.1249 15 15.2503 15.0267 15.3662 15.0782C15.4821 15.1298 15.5858 15.2052 15.6707 15.2994C15.7555 15.3936 15.8196 15.5046 15.8588 15.6252C15.898 15.7458 15.9113 15.8733 15.898 15.9994L15.548 19.5042C15.5338 19.6401 15.4697 19.7659 15.3681 19.8573C15.2666 19.9487 15.1347 19.9994 14.998 19.9994C14.8613 19.9994 14.7294 19.9487 14.6279 19.8573C14.5263 19.7659 14.4622 19.6401 14.448 19.5042L14.098 15.9994Z" fill="#925D5E"/>
</svg>
