<svg width="14" height="14" viewBox="0 0 14 14" fill="none" xmlns="http://www.w3.org/2000/svg">
<path d="M1.94933 14C1.5521 14 1.21194 13.863 0.928827 13.5891C0.646198 13.3147 0.504883 12.985 0.504883 12.6V2.8C0.504883 2.415 0.646198 2.08553 0.928827 1.8116C1.21194 1.5372 1.5521 1.4 1.94933 1.4H2.67155V0H4.11599V1.4H9.89377V0H11.3382V1.4H12.0604C12.4577 1.4 12.7978 1.5372 13.0809 1.8116C13.3636 2.08553 13.5049 2.415 13.5049 2.8V12.6C13.5049 12.985 13.3636 13.3147 13.0809 13.5891C12.7978 13.863 12.4577 14 12.0604 14H1.94933ZM1.94933 12.6H12.0604V5.6H1.94933V12.6ZM1.94933 4.2H12.0604V2.8H1.94933V4.2Z" fill="#3C3C3B"/>
</svg>
