<svg width="13" height="14" viewBox="0 0 13 14" fill="none" xmlns="http://www.w3.org/2000/svg">
<path d="M1.44444 14C1.04722 14 0.707055 13.863 0.423944 13.5891C0.141315 13.3147 0 12.985 0 12.6V2.8C0 2.415 0.141315 2.08553 0.423944 1.8116C0.707055 1.5372 1.04722 1.4 1.44444 1.4H2.16667V0H3.61111V1.4H9.38889V0H10.8333V1.4H11.5556C11.9528 1.4 12.2929 1.5372 12.5761 1.8116C12.8587 2.08553 13 2.415 13 2.8V12.6C13 12.985 12.8587 13.3147 12.5761 13.5891C12.2929 13.863 11.9528 14 11.5556 14H1.44444ZM1.44444 12.6H11.5556V5.6H1.44444V12.6ZM1.44444 4.2H11.5556V2.8H1.44444V4.2Z" fill="#3C3C3B"/>
</svg>
