<svg width="17" height="17" viewBox="0 0 17 17" fill="none" xmlns="http://www.w3.org/2000/svg">
<path d="M1.54883 15.425H2.79883L12.0488 6.175L10.8238 4.925L1.54883 14.2V15.425ZM15.2488 5.075L11.8738 1.725L13.1738 0.425C13.4738 0.141667 13.8365 0 14.2618 0C14.6865 0 15.0405 0.141667 15.3238 0.425L16.5488 1.65C16.8322 1.95 16.9822 2.304 16.9988 2.712C17.0155 3.12067 16.8738 3.46667 16.5738 3.75L15.2488 5.075ZM14.1738 6.175L3.42383 16.925H0.0488281V13.55L10.7988 2.8L14.1738 6.175ZM11.4238 5.55L10.8238 4.925L12.0488 6.175L11.4238 5.55Z" fill="white"/>
</svg>
