<svg width="56" height="74" viewBox="0 0 56 74" fill="none" xmlns="http://www.w3.org/2000/svg">
<path d="M11 22C11 20.8954 11.8954 20 13 20H23C24.1046 20 25 20.8954 25 22C25 23.1046 24.1046 24 23 24H13C11.8954 24 11 23.1046 11 22Z" fill="#3C3C3B"/>
<path d="M13 33C11.8954 33 11 33.8954 11 35C11 36.1046 11.8954 37 13 37H42C43.1046 37 44 36.1046 44 35C44 33.8954 43.1046 33 42 33H13Z" fill="#3C3C3B"/>
<path d="M11 48C11 46.8954 11.8954 46 13 46H42C43.1046 46 44 46.8954 44 48C44 49.1046 43.1046 50 42 50H13C11.8954 50 11 49.1046 11 48Z" fill="#3C3C3B"/>
<path d="M13 59C11.8954 59 11 59.8954 11 61C11 62.1046 11.8954 63 13 63H42C43.1046 63 44 62.1046 44 61C44 59.8954 43.1046 59 42 59H13Z" fill="#3C3C3B"/>
<path fill-rule="evenodd" clip-rule="evenodd" d="M5.25 0C2.35069 0 0 2.35069 0 5.25V68.25C0 71.1493 2.35069 73.5 5.25 73.5H49.875C52.7743 73.5 55.125 71.1493 55.125 68.25V21.0013L34.125 0H5.25ZM49.875 68.25H5.25V5.25H28.875V23.25C28.875 24.9069 30.2181 26.25 31.875 26.25H49.875V68.25ZM35.125 21C34.5727 21 34.125 20.5523 34.125 20V7.4235L47.6989 21H35.125Z" fill="#3C3C3B"/>
</svg>
