<svg width="23" height="23" viewBox="0 0 23 23" fill="none" xmlns="http://www.w3.org/2000/svg">
<path d="M0 11.5C0 17.8513 5.14873 23 11.5 23C17.8513 23 23 17.8513 23 11.5C23 5.14873 17.8513 0 11.5 0C5.14873 0 0 5.14873 0 11.5Z" fill="#FAD0C1"/>
<path fill-rule="evenodd" clip-rule="evenodd" d="M15.819 10.592C15.945 10.592 16.0658 10.642 16.1549 10.7311C16.244 10.8202 16.294 10.941 16.294 11.067V15.819C16.294 15.945 16.244 16.0658 16.1549 16.1549C16.0658 16.244 15.945 16.294 15.819 16.294H11.069C10.943 16.294 10.8222 16.244 10.7331 16.1549C10.6441 16.0658 10.594 15.945 10.594 15.819C10.594 15.693 10.6441 15.5722 10.7331 15.4831C10.8222 15.394 10.943 15.344 11.069 15.344H15.344V11.067C15.344 10.941 15.3941 10.8202 15.4831 10.7311C15.5722 10.642 15.693 10.592 15.819 10.592Z" fill="#FA4200"/>
<path fill-rule="evenodd" clip-rule="evenodd" d="M16.155 16.156C16.1109 16.2003 16.0584 16.2354 16.0007 16.2594C15.9429 16.2834 15.881 16.2957 15.8185 16.2957C15.756 16.2957 15.6941 16.2834 15.6363 16.2594C15.5786 16.2354 15.5261 16.2003 15.482 16.156L6.92801 7.602C6.842 7.5121 6.79462 7.39209 6.796 7.26769C6.79738 7.14328 6.84741 7.02436 6.93539 6.93638C7.02336 6.84841 7.14228 6.79838 7.26669 6.797C7.3911 6.79562 7.5111 6.843 7.60101 6.929L16.155 15.483C16.1993 15.5271 16.2344 15.5796 16.2584 15.6373C16.2824 15.6951 16.2948 15.757 16.2948 15.8195C16.2948 15.882 16.2824 15.9439 16.2584 16.0017C16.2344 16.0594 16.1993 16.1119 16.155 16.156Z" fill="#FA4200"/>
</svg>
