<svg width="33" height="42" viewBox="0 0 33 42" fill="none" xmlns="http://www.w3.org/2000/svg">
<path d="M8.13194 29.3952C12.623 33.8862 19.9044 33.8862 24.3954 29.3952C28.8864 24.9042 28.8864 17.6228 24.3954 13.1317C19.9044 8.6407 12.623 8.6407 8.13194 13.1317C3.64092 17.6228 3.64092 24.9042 8.13194 29.3952Z" fill="#A7CCFF"/>
<path fill-rule="evenodd" clip-rule="evenodd" d="M18.6756 17.5674C18.7647 17.4783 18.8855 17.4283 19.0115 17.4283C19.1375 17.4283 19.2583 17.4783 19.3474 17.5674L22.7075 20.9276C22.7966 21.0167 22.8467 21.1375 22.8467 21.2635C22.8467 21.3894 22.7966 21.5103 22.7075 21.5993L19.3488 24.9581C19.2597 25.0472 19.1389 25.0972 19.0129 25.0972C18.8869 25.0972 18.7661 25.0472 18.677 24.9581C18.5879 24.869 18.5379 24.7482 18.5379 24.6222C18.5379 24.4962 18.5879 24.3754 18.677 24.2863L21.6999 21.2635L18.6756 18.2392C18.5865 18.1501 18.5365 18.0293 18.5365 17.9033C18.5365 17.7773 18.5865 17.6565 18.6756 17.5674Z" fill="#28448D"/>
<path fill-rule="evenodd" clip-rule="evenodd" d="M22.8475 21.2642C22.8477 21.3267 22.8354 21.3886 22.8116 21.4464C22.7877 21.5042 22.7526 21.5567 22.7084 21.6009C22.6642 21.6451 22.6117 21.6802 22.5539 21.7041C22.4961 21.7279 22.4342 21.7402 22.3717 21.7401L10.2745 21.7401C10.1501 21.7373 10.0317 21.6859 9.94474 21.597C9.85775 21.5081 9.80904 21.3886 9.80903 21.2642C9.80903 21.1398 9.85775 21.0203 9.94474 20.9313C10.0317 20.8424 10.1501 20.791 10.2745 20.7883L22.3717 20.7883C22.4342 20.7882 22.4961 20.8004 22.5539 20.8243C22.6117 20.8481 22.6642 20.8832 22.7084 20.9274C22.7526 20.9716 22.7877 21.0241 22.8116 21.0819C22.8354 21.1397 22.8477 21.2016 22.8475 21.2642Z" fill="#28448D"/>
</svg>
