<svg width="12" height="12" viewBox="0 0 12 12" fill="none" xmlns="http://www.w3.org/2000/svg">
<path d="M6 11.25C4.60761 11.25 3.27226 10.6969 2.28769 9.71231C1.30312 8.72774 0.75 7.39239 0.75 6C0.75 4.60761 1.30312 3.27226 2.28769 2.28769C3.27226 1.30312 4.60761 0.75 6 0.75C7.39239 0.75 8.72774 1.30312 9.71231 2.28769C10.6969 3.27226 11.25 4.60761 11.25 6C11.25 7.39239 10.6969 8.72774 9.71231 9.71231C8.72774 10.6969 7.39239 11.25 6 11.25ZM6 12C7.5913 12 9.11742 11.3679 10.2426 10.2426C11.3679 9.11742 12 7.5913 12 6C12 4.4087 11.3679 2.88258 10.2426 1.75736C9.11742 0.632141 7.5913 0 6 0C4.4087 0 2.88258 0.632141 1.75736 1.75736C0.632141 2.88258 0 4.4087 0 6C0 7.5913 0.632141 9.11742 1.75736 10.2426C2.88258 11.3679 4.4087 12 6 12Z" fill="currentColor"/>
<path d="M5.2514 8.24984C5.2514 8.15135 5.2708 8.05383 5.30849 7.96283C5.34619 7.87184 5.40143 7.78916 5.47107 7.71951C5.54072 7.64987 5.6234 7.59462 5.71439 7.55693C5.80539 7.51924 5.90291 7.49984 6.0014 7.49984C6.0999 7.49984 6.19742 7.51924 6.28842 7.55693C6.37941 7.59462 6.46209 7.64987 6.53173 7.71951C6.60138 7.78916 6.65662 7.87184 6.69431 7.96283C6.732 8.05383 6.7514 8.15135 6.7514 8.24984C6.7514 8.44876 6.67239 8.63952 6.53173 8.78017C6.39108 8.92083 6.20032 8.99984 6.0014 8.99984C5.80249 8.99984 5.61173 8.92083 5.47107 8.78017C5.33042 8.63952 5.2514 8.44876 5.2514 8.24984ZM5.3249 3.74609C5.31492 3.65147 5.32493 3.55581 5.3543 3.46531C5.38368 3.37482 5.43174 3.2915 5.49539 3.22078C5.55904 3.15006 5.63685 3.09351 5.72376 3.05481C5.81068 3.0161 5.90476 2.99609 5.9999 2.99609C6.09505 2.99609 6.18913 3.0161 6.27605 3.05481C6.36296 3.09351 6.44077 3.15006 6.50441 3.22078C6.56806 3.2915 6.61613 3.37482 6.6455 3.46531C6.67487 3.55581 6.68489 3.65147 6.6749 3.74609L6.4124 6.37634C6.40358 6.47967 6.35631 6.57593 6.27992 6.64607C6.20354 6.71621 6.10361 6.75513 5.9999 6.75513C5.8962 6.75513 5.79627 6.71621 5.71989 6.64607C5.6435 6.57593 5.59622 6.47967 5.5874 6.37634L5.3249 3.74609Z" fill="currentColor"/>
</svg>
