<svg width="17" height="17" viewBox="0 0 17 17" fill="none" xmlns="http://www.w3.org/2000/svg">
<path d="M1.5 15.425H2.75L12 6.175L10.775 4.925L1.5 14.2V15.425ZM15.2 5.075L11.825 1.725L13.125 0.425C13.425 0.141667 13.7877 0 14.213 0C14.6377 0 14.9917 0.141667 15.275 0.425L16.5 1.65C16.7833 1.95 16.9333 2.304 16.95 2.712C16.9667 3.12067 16.825 3.46667 16.525 3.75L15.2 5.075ZM14.125 6.175L3.375 16.925H0V13.55L10.75 2.8L14.125 6.175ZM11.375 5.55L10.775 4.925L12 6.175L11.375 5.55Z" fill="currentColor"/>
</svg>
