<svg width="14" height="12" viewBox="0 0 14 12" fill="none" xmlns="http://www.w3.org/2000/svg">
<path fill-rule="evenodd" clip-rule="evenodd" d="M11.7814 0.436192C11.8983 0.302034 12.0389 0.194369 12.195 0.119517C12.3511 0.0446652 12.5195 0.00413322 12.6903 0.000299938C12.8611 -0.00353335 13.0309 0.0294098 13.1898 0.0971951C13.3486 0.16498 13.4932 0.266243 13.6152 0.39504C13.7372 0.523837 13.8341 0.677574 13.9002 0.84723C13.9663 1.01689 14.0002 1.19904 14 1.38301C13.9998 1.56697 13.9655 1.74905 13.8991 1.91854C13.8326 2.08803 13.7354 2.24153 13.6131 2.37002L6.7863 11.5588C6.66894 11.6948 6.52732 11.804 6.3699 11.8797C6.21248 11.9555 6.04249 11.9963 5.87009 11.9998C5.69769 12.0032 5.52642 11.9692 5.3665 11.8997C5.20658 11.8303 5.06131 11.7269 4.93935 11.5956L0.415482 6.72299C0.287941 6.59696 0.185407 6.44444 0.114054 6.27461C0.0427007 6.10479 0.00400432 5.92117 0.000294637 5.73482C-0.00341504 5.54847 0.0279392 5.36323 0.0924686 5.19027C0.156998 5.01731 0.253368 4.8602 0.375776 4.7284C0.498185 4.5966 0.644099 4.49283 0.804734 4.42335C0.965369 4.35387 1.1374 4.32011 1.31047 4.32411C1.48355 4.3281 1.65408 4.36977 1.8118 4.44659C1.96952 4.52342 2.11117 4.63382 2.22822 4.77115L5.80962 8.6249L11.7487 0.477111C11.7593 0.462988 11.7708 0.449594 11.7829 0.43701L11.7814 0.436192Z" fill="#03781D"/>
</svg>
