<svg width="22" height="21" viewBox="0 0 22 21" fill="none" xmlns="http://www.w3.org/2000/svg">
<path d="M15.1 11.1L13.65 9.64998C13.8 8.86664 13.575 8.13331 12.975 7.44998C12.375 6.76664 11.6 6.49998 10.65 6.64998L9.2 5.19998C9.48333 5.06664 9.77067 4.96664 10.062 4.89998C10.354 4.83331 10.6667 4.79998 11 4.79998C12.25 4.79998 13.3127 5.23731 14.188 6.11198C15.0627 6.98731 15.5 8.04998 15.5 9.29998C15.5 9.63331 15.4667 9.94598 15.4 10.238C15.3333 10.5293 15.2333 10.8166 15.1 11.1ZM18.3 14.25L16.85 12.85C17.4833 12.3666 18.046 11.8373 18.538 11.262C19.0293 10.6873 19.45 10.0333 19.8 9.29998C18.9667 7.61664 17.7707 6.27898 16.212 5.28698C14.654 4.29564 12.9167 3.79998 11 3.79998C10.5167 3.79998 10.0417 3.83331 9.575 3.89998C9.10833 3.96664 8.65 4.06664 8.2 4.19998L6.65 2.64998C7.33333 2.36664 8.03333 2.15398 8.75 2.01198C9.46667 1.87064 10.2167 1.79998 11 1.79998C13.5167 1.79998 15.7583 2.49564 17.725 3.88698C19.6917 5.27898 21.1167 7.08331 22 9.29998C21.6167 10.2833 21.1127 11.196 20.488 12.038C19.8627 12.8793 19.1333 13.6166 18.3 14.25ZM18.8 20.4L14.6 16.25C14.0167 16.4333 13.4293 16.571 12.838 16.663C12.246 16.7543 11.6333 16.8 11 16.8C8.48333 16.8 6.24167 16.1043 4.275 14.713C2.30833 13.321 0.883333 11.5166 0 9.29998C0.35 8.41664 0.791667 7.59564 1.325 6.83698C1.85833 6.07898 2.46667 5.39998 3.15 4.79998L0.4 1.99998L1.8 0.599976L20.2 19L18.8 20.4ZM4.55 6.19998C4.06667 6.63331 3.625 7.10831 3.225 7.62498C2.825 8.14164 2.48333 8.69998 2.2 9.29998C3.03333 10.9833 4.229 12.3206 5.787 13.312C7.34567 14.304 9.08333 14.8 11 14.8C11.3333 14.8 11.6583 14.7793 11.975 14.738C12.2917 14.696 12.6167 14.65 12.95 14.6L12.05 13.65C11.8667 13.7 11.6917 13.7373 11.525 13.762C11.3583 13.7873 11.1833 13.8 11 13.8C9.75 13.8 8.68733 13.3626 7.812 12.488C6.93733 11.6126 6.5 10.55 6.5 9.29998C6.5 9.11664 6.51233 8.94164 6.537 8.77498C6.56233 8.60831 6.6 8.43331 6.65 8.24998L4.55 6.19998Z" fill="#9E9E9E"/>
</svg>
