<svg width="25" height="24" viewBox="0 0 25 24" fill="none" xmlns="http://www.w3.org/2000/svg">
<path d="M20.994 7.63556H22.1526C22.7313 7.63556 23.2863 7.86544 23.6954 8.27463C24.1046 8.68382 24.3345 9.2388 24.3345 9.81749V14.1813C24.3345 14.76 24.1046 15.315 23.6954 15.7242C23.2863 16.1334 22.7313 16.3633 22.1526 16.3633H20.994C20.728 18.4724 19.7015 20.412 18.107 21.8181C16.5126 23.2241 14.4598 24 12.3339 24V21.8181C14.07 21.8181 15.7349 21.1284 16.9625 19.9009C18.1901 18.6733 18.8797 17.0083 18.8797 15.2723V8.72653C18.8797 6.99048 18.1901 5.32553 16.9625 4.09796C15.7349 2.87039 14.07 2.18075 12.3339 2.18075C10.5979 2.18075 8.93294 2.87039 7.70537 4.09796C6.4778 5.32553 5.78816 6.99048 5.78816 8.72653V16.3633H2.51527C1.93659 16.3633 1.3816 16.1334 0.972415 15.7242C0.563224 15.315 0.333344 14.76 0.333344 14.1813V9.81749C0.333344 9.2388 0.563224 8.68382 0.972415 8.27463C1.3816 7.86544 1.93659 7.63556 2.51527 7.63556H3.67387C3.9401 5.52662 4.96675 3.5873 6.56118 2.18149C8.15562 0.775677 10.2082 0 12.3339 0C14.4596 0 16.5122 0.775677 18.1067 2.18149C19.7011 3.5873 20.7278 5.52662 20.994 7.63556ZM2.51527 9.81749V14.1813H3.60623V9.81749H2.51527ZM21.0616 9.81749V14.1813H22.1526V9.81749H21.0616ZM7.70825 16.1287L8.86467 14.2784C9.90444 14.9298 11.107 15.2743 12.3339 15.2723C13.5609 15.2743 14.7634 14.9298 15.8032 14.2784L16.9596 16.1287C15.5733 16.9973 13.9699 17.4567 12.3339 17.4542C10.698 17.4567 9.09458 16.9973 7.70825 16.1287Z" fill="currentColor"/>
</svg>
