<svg width="26" height="26" viewBox="0 0 26 26" fill="none" xmlns="http://www.w3.org/2000/svg">
<mask id="path-1-inside-1_603_3016" fill="white">
<path fill-rule="evenodd" clip-rule="evenodd" d="M12 6H6V12H12V6ZM20 6H14V12H20V6ZM6 14H12V20H6V14ZM20 14H14V20H20V14Z"/>
</mask>
<path fill-rule="evenodd" clip-rule="evenodd" d="M12 6H6V12H12V6ZM20 6H14V12H20V6ZM6 14H12V20H6V14ZM20 14H14V20H20V14Z" fill="currentColor"/>
<path d="M6 6V5H5V6H6ZM12 6H13V5H12V6ZM6 12H5V13H6V12ZM12 12V13H13V12H12ZM14 6V5H13V6H14ZM20 6H21V5H20V6ZM14 12H13V13H14V12ZM20 12V13H21V12H20ZM12 14H13V13H12V14ZM6 14V13H5V14H6ZM12 20V21H13V20H12ZM6 20H5V21H6V20ZM14 14V13H13V14H14ZM20 14H21V13H20V14ZM14 20H13V21H14V20ZM20 20V21H21V20H20ZM6 7H12V5H6V7ZM7 12V6H5V12H7ZM12 11H6V13H12V11ZM11 6V12H13V6H11ZM14 7H20V5H14V7ZM15 12V6H13V12H15ZM20 11H14V13H20V11ZM19 6V12H21V6H19ZM12 13H6V15H12V13ZM13 20V14H11V20H13ZM6 21H12V19H6V21ZM5 14V20H7V14H5ZM14 15H20V13H14V15ZM15 20V14H13V20H15ZM20 19H14V21H20V19ZM19 14V20H21V14H19Z" fill="currentColor" mask="url(#path-1-inside-1_603_3016)"/>
<rect x="1" y="1" width="24" height="24" rx="3" stroke="currentColor" stroke-width="2"/>
</svg>
