<svg width="23" height="25" viewBox="0 0 23 25" fill="none" xmlns="http://www.w3.org/2000/svg">
<path d="M20.3333 0C20.9964 0 21.6323 0.263392 22.1011 0.732233C22.57 1.20107 22.8333 1.83696 22.8333 2.5V17.5C22.8333 18.163 22.57 18.7989 22.1011 19.2678C21.6323 19.7366 20.9964 20 20.3333 20H7.83334C7.1703 20 6.53442 19.7366 6.06558 19.2678C5.59674 18.7989 5.33334 18.163 5.33334 17.5V2.5C5.33334 1.83696 5.59674 1.20107 6.06558 0.732233C6.53442 0.263392 7.1703 0 7.83334 0H20.3333ZM20.3333 2.5H16.5833V10L13.4583 7.1875L10.3333 10V2.5H7.83334V17.5H20.3333M0.333344 22.5C0.333344 23.163 0.596735 23.7989 1.06558 24.2678C1.53442 24.7366 2.1703 25 2.83334 25H16.5833C17.2737 25 17.8333 24.4404 17.8333 23.75C17.8333 23.0596 17.2737 22.5 16.5833 22.5H2.83334V6.25C2.83334 5.55964 2.2737 5 1.58334 5C0.892988 5 0.333344 5.55964 0.333344 6.25V22.5Z" fill="currentColor"/>
</svg>
