<svg width="26" height="25" viewBox="0 0 26 25" fill="none" xmlns="http://www.w3.org/2000/svg">
<path d="M13.0937 11.2527C12.2197 11.2435 11.3679 10.9759 10.6456 10.4836C9.92335 9.99131 9.36286 9.29633 9.03474 8.48617C8.70661 7.676 8.62552 6.78686 8.80166 5.9307C8.97781 5.07454 9.40332 4.28963 10.0246 3.6748C10.6459 3.05996 11.4353 2.64269 12.2932 2.47552C13.1512 2.30835 14.0394 2.39875 14.8461 2.73534C15.6528 3.07193 16.3419 3.63967 16.8266 4.36706C17.3113 5.09446 17.5699 5.949 17.57 6.8231C17.5617 8.00344 17.086 9.13241 16.247 9.96268C15.408 10.7929 14.2741 11.2568 13.0937 11.2527ZM13.0937 3.94775C12.5271 3.95694 11.9759 4.13335 11.5092 4.45484C11.0425 4.77632 10.6812 5.22853 10.4707 5.75467C10.2603 6.28082 10.2099 6.85743 10.3261 7.41208C10.4422 7.96674 10.7197 8.47471 11.1236 8.87218C11.5275 9.26965 12.0399 9.53891 12.5963 9.64613C13.1528 9.75335 13.7285 9.69375 14.2512 9.47482C14.7739 9.25588 15.2203 8.88738 15.5342 8.4156C15.8481 7.94381 16.0156 7.38978 16.0157 6.8231C16.0075 6.05496 15.6955 5.32132 15.148 4.78252C14.6005 4.24372 13.8619 3.9436 13.0937 3.94775Z" fill="currentColor"/>
<path d="M13.0936 11.2527C12.2196 11.2435 11.3678 10.9759 10.6455 10.4836C9.9232 9.99131 9.36272 9.29633 9.03459 8.48617C8.70646 7.676 8.62537 6.78686 8.80151 5.9307C8.97766 5.07454 9.40317 4.28963 10.0245 3.6748C10.6458 3.05996 11.4351 2.64269 12.2931 2.47552C13.151 2.30835 14.0393 2.39875 14.846 2.73534C15.6526 3.07193 16.3417 3.63967 16.8264 4.36706C17.3111 5.09446 17.5698 5.949 17.5698 6.8231C17.5616 8.00344 17.0859 9.13241 16.2469 9.96268C15.4079 10.7929 14.274 11.2568 13.0936 11.2527ZM13.0936 3.94775C12.527 3.95694 11.9757 4.13335 11.509 4.45484C11.0424 4.77632 10.6811 5.22853 10.4706 5.75467C10.2601 6.28082 10.2098 6.85743 10.3259 7.41209C10.4421 7.96674 10.7195 8.47471 11.1235 8.87218C11.5274 9.26965 12.0398 9.53891 12.5962 9.64613C13.1527 9.75335 13.7284 9.69375 14.2511 9.47482C14.7738 9.25589 15.2201 8.88738 15.534 8.4156C15.848 7.94381 16.0155 7.38978 16.0156 6.8231C16.0074 6.05496 15.6954 5.32132 15.1479 4.78252C14.6003 4.24372 13.8618 3.9436 13.0936 3.94775Z" fill="currentColor"/>
<path d="M15.8058 12.294C12.3589 11.6942 10.3333 12 6.55024 13.2103C6.03216 13.4138 4.996 14.2565 4.996 16V17.8582C4.996 18.0643 5.07788 18.262 5.22362 18.4077C5.36935 18.5535 5.56702 18.6353 5.77312 18.6353C5.97923 18.6353 6.17689 18.5535 6.32263 18.4077C6.46837 18.262 6.55024 18.0643 6.55024 17.8582V16.4268C6.55024 15.6703 6.973 14.9675 7.67525 14.6861C10.2687 13.6468 13.1137 13.3649 15.8757 13.8871L15.8058 12.294Z" fill="currentColor"/>
<path d="M24.4241 15.6745H19.2174V14.5244C19.2174 14.3183 19.1355 14.1206 18.9898 13.9749C18.8441 13.8291 18.6464 13.7473 18.4403 13.7473C18.2342 13.7473 18.0365 13.8291 17.8908 13.9749C17.7451 14.1206 17.6632 14.3183 17.6632 14.5244V15.6745H11.9902C11.7841 15.6745 11.5864 15.7564 11.4407 15.9021C11.2949 16.0479 11.2131 16.2455 11.2131 16.4516V24.2228C11.2131 24.4289 11.2949 24.6266 11.4407 24.7724C11.5864 24.9181 11.7841 25 11.9902 25H24.4241C24.6302 25 24.8279 24.9181 24.9736 24.7724C25.1194 24.6266 25.2012 24.4289 25.2012 24.2228V16.4516C25.2012 16.2455 25.1194 16.0479 24.9736 15.9021C24.8279 15.7564 24.6302 15.6745 24.4241 15.6745ZM23.647 23.4457H12.7673V17.2288H17.6632V17.5474C17.6632 17.7535 17.7451 17.9511 17.8908 18.0969C18.0365 18.2426 18.2342 18.3245 18.4403 18.3245C18.6464 18.3245 18.8441 18.2426 18.9898 18.0969C19.1355 17.9511 19.2174 17.7535 19.2174 17.5474V17.2288H23.647V23.4457Z" fill="currentColor"/>
<path d="M15.7281 19.8865H20.3597V20.9745H15.7281V19.8865ZM7.20309 8.08986C5.05159 8.12585 3.57238 8.28607 1.65997 9.27244C0.834616 9.7084 0.333657 10.5798 0.333748 11.5132C0.333794 11.984 0.33372 12.4056 0.333344 12.5V13.1955C0.333344 13.4016 0.415218 13.5993 0.560957 13.745C0.706695 13.8908 0.904359 13.9727 1.11046 13.9727C1.31657 13.9727 1.51423 13.8908 1.65997 13.745C1.80571 13.5993 1.88758 13.4016 1.88758 13.1955V12.1804C1.88758 11.4216 2.31243 10.715 3.02203 10.4461C4.53614 9.87227 6.15167 9.59831 7.77816 9.6441C7.51122 9.15705 7.31745 8.63336 7.20309 8.08986ZM23.3333 9C22.3333 8.5 20.9093 8.20708 18.9765 8.08209C18.8626 8.62462 18.6716 9.14803 18.4092 9.63633C19.8176 9.67004 21.2068 9.94442 22.5173 10.4447C23.2244 10.7146 23.647 11.4198 23.647 12.1766V13.1955C23.647 13.4016 23.7288 13.5993 23.8746 13.745C24.0203 13.8908 24.218 13.9727 24.4241 13.9727C24.6302 13.9727 24.8279 13.8908 24.9736 13.745C25.1193 13.5993 25.2012 13.4016 25.2012 13.1955L25.2012 12C25.2017 11.7635 25.2012 11.2357 24.8333 10.5C24.3333 9.5 23.5425 9.11048 23.3333 9ZM7.06321 6.82315V6.30248C6.45442 6.22101 5.90052 5.90789 5.51679 5.42829C5.13307 4.9487 4.94909 4.33959 5.00317 3.72777C5.05724 3.11594 5.34519 2.54854 5.80709 2.14368C6.26898 1.73883 6.86922 1.52771 7.48285 1.55427C8.12112 1.55312 8.73459 1.80129 9.19252 2.24591C9.59654 1.91267 10.0403 1.63076 10.5136 1.40662C9.98488 0.798644 9.28432 0.365152 8.50429 0.163281C7.72425 -0.0385909 6.90136 0.000633717 6.14406 0.275785C5.38677 0.550935 4.73062 1.0491 4.2621 1.70461C3.79358 2.36012 3.53469 3.14221 3.51954 3.9478C3.53585 4.93378 3.91913 5.87826 4.59453 6.59677C5.26993 7.31528 6.18892 7.7562 7.172 7.83341C7.10608 7.50051 7.06967 7.16245 7.06321 6.82315ZM18.0284 3.1144e-05C17.4943 0.000148712 16.9657 0.106734 16.4733 0.313556C15.9809 0.520378 15.5347 0.823286 15.1608 1.20457C15.6862 1.39494 16.183 1.65641 16.6373 1.98169C17.0001 1.72985 17.4245 1.58119 17.8651 1.55156C18.3058 1.52193 18.7462 1.61245 19.1394 1.81346C19.5327 2.01447 19.864 2.31843 20.0981 2.69295C20.3321 3.06746 20.4602 3.49847 20.4685 3.94003C20.4636 4.39359 20.3304 4.83648 20.0842 5.21745C19.838 5.59841 19.489 5.90186 19.0775 6.09266C19.1088 6.33229 19.1243 6.57371 19.1241 6.81538C19.122 7.12776 19.0961 7.43951 19.0464 7.74792C19.893 7.53028 20.6439 7.03886 21.1822 6.35016C21.7205 5.66146 22.016 4.81412 22.0228 3.94003C22.0125 2.88882 21.5867 1.8844 20.8382 1.14616C20.0898 0.40792 19.0796 -0.00412538 18.0284 3.1144e-05Z" fill="currentColor"/>
</svg>
