<svg width="23" height="25" viewBox="0 0 23 25" fill="none" xmlns="http://www.w3.org/2000/svg">
<path d="M2.83334 25C2.14584 25 1.55709 24.7554 1.06709 24.2663C0.577927 23.7763 0.333344 23.1875 0.333344 22.5V5C0.333344 4.3125 0.577927 3.72417 1.06709 3.235C1.55709 2.745 2.14584 2.5 2.83334 2.5H4.08334V1.21875C4.08334 0.864583 4.20293 0.572917 4.44209 0.34375C4.68209 0.114583 4.97918 0 5.33334 0C5.68751 0 5.98459 0.119583 6.22459 0.35875C6.46376 0.59875 6.58334 0.895833 6.58334 1.25V2.5H16.5833V1.21875C16.5833 0.864583 16.7033 0.572917 16.9433 0.34375C17.1825 0.114583 17.4792 0 17.8333 0C18.1875 0 18.4842 0.119583 18.7233 0.35875C18.9633 0.59875 19.0833 0.895833 19.0833 1.25V2.5H20.3333C21.0208 2.5 21.6096 2.745 22.0996 3.235C22.5888 3.72417 22.8333 4.3125 22.8333 5V22.5C22.8333 23.1875 22.5888 23.7763 22.0996 24.2663C21.6096 24.7554 21.0208 25 20.3333 25H2.83334ZM2.83334 22.5H20.3333V10H2.83334V22.5ZM2.83334 7.5H20.3333V5H2.83334V7.5Z" fill="currentColor"/>
</svg>
