<svg width="23" height="16" viewBox="0 0 23 16" fill="none" xmlns="http://www.w3.org/2000/svg">
<path d="M21.5476 6.4C21.756 6.4 21.9559 6.31571 22.1032 6.16569C22.2506 6.01566 22.3333 5.81217 22.3333 5.6V1.6C22.3333 1.17565 22.1678 0.768687 21.8731 0.468629C21.5784 0.168571 21.1787 0 20.7619 0H1.90477C1.488 0 1.0883 0.168571 0.793604 0.468629C0.498904 0.768687 0.333344 1.17565 0.333344 1.6V5.6C0.333344 5.81217 0.416124 6.01566 0.563474 6.16569C0.710824 6.31571 0.910673 6.4 1.11906 6.4C1.53583 6.4 1.93553 6.56857 2.23023 6.86863C2.52493 7.16869 2.69049 7.57565 2.69049 8C2.69049 8.42435 2.52493 8.83131 2.23023 9.13137C1.93553 9.43143 1.53583 9.6 1.11906 9.6C0.910673 9.6 0.710824 9.68429 0.563474 9.83431C0.416124 9.98434 0.333344 10.1878 0.333344 10.4V14.4C0.333344 14.8243 0.498904 15.2313 0.793604 15.5314C1.0883 15.8314 1.488 16 1.90477 16H20.7619C21.1787 16 21.5784 15.8314 21.8731 15.5314C22.1678 15.2313 22.3333 14.8243 22.3333 14.4V10.4C22.3333 10.1878 22.2506 9.98434 22.1032 9.83431C21.9559 9.68429 21.756 9.6 21.5476 9.6C21.1309 9.6 20.7312 9.43143 20.4365 9.13137C20.1418 8.83131 19.9762 8.42435 19.9762 8C19.9762 7.57565 20.1418 7.16869 20.4365 6.86863C20.7312 6.56857 21.1309 6.4 21.5476 6.4ZM20.7619 11.096V14.4H15.2619V12H13.6905V14.4H1.90477V11.096C2.57734 10.917 3.17265 10.516 3.59753 9.95584C4.02242 9.39563 4.25289 8.7078 4.25289 8C4.25289 7.2922 4.02242 6.60437 3.59753 6.04416C3.17265 5.48395 2.57734 5.08298 1.90477 4.904V1.6H13.6905V4H15.2619V1.6H20.7619V4.904C20.0893 5.08298 19.494 5.48395 19.0692 6.04416C18.6443 6.60437 18.4138 7.2922 18.4138 8C18.4138 8.7078 18.6443 9.39563 19.0692 9.95584C19.494 10.516 20.0893 10.917 20.7619 11.096Z" fill="currentColor"/>
<path d="M13.3333 6H15.3333V10H13.3333V6Z" fill="currentColor"/>
</svg>
