<svg width="26" height="25" viewBox="0 0 26 25" fill="none" xmlns="http://www.w3.org/2000/svg">
<path d="M1.5835 22.5V8.375C1.22933 8.14583 0.932663 7.85417 0.693496 7.5C0.453496 7.14583 0.333496 6.72917 0.333496 6.25V2.5C0.333496 1.8125 0.578496 1.22375 1.0685 0.73375C1.55766 0.244583 2.146 0 2.8335 0H22.8335C23.521 0 24.1097 0.244583 24.5997 0.73375C25.0889 1.22375 25.3335 1.8125 25.3335 2.5V6.25C25.3335 6.72917 25.2135 7.14583 24.9735 7.5C24.7343 7.85417 24.4377 8.14583 24.0835 8.375V22.5C24.0835 23.1875 23.8389 23.7763 23.3497 24.2663C22.8597 24.7554 22.271 25 21.5835 25H4.0835C3.396 25 2.80725 24.7554 2.31725 24.2663C1.82808 23.7763 1.5835 23.1875 1.5835 22.5ZM4.0835 8.75V22.5H21.5835V8.75H4.0835ZM22.8335 6.25V2.5H2.8335V6.25H22.8335ZM9.0835 15H16.5835V12.5H9.0835V15Z" fill="currentColor"/>
</svg>
