<svg width="27" height="26" viewBox="0 0 27 26" fill="none" xmlns="http://www.w3.org/2000/svg">
<path d="M13.2444 12.3778C15.6444 12.3778 17.5111 10.4222 17.5111 8.02222C17.5111 5.62222 15.5556 3.75556 13.1556 3.75556C10.7556 3.75556 8.88889 5.71111 8.88889 8.02222C8.88889 10.4222 10.8444 12.3778 13.2444 12.3778ZM13.1556 5.53334C13.2444 5.53334 13.2444 5.53334 13.1556 5.53334C14.5778 5.53334 15.7333 6.68889 15.7333 8.11111C15.7333 9.53334 14.5778 10.6 13.1556 10.6C11.7333 10.6 10.6667 9.44445 10.6667 8.11111C10.6667 6.68889 11.8222 5.53334 13.1556 5.53334Z" fill="currentColor"/>
<path d="M26.4 11.8444C24.7111 10.3333 22.4889 9.53333 20.1778 9.62222H19.4667C19.2889 10.3333 19.0222 10.9556 18.6667 11.4889C19.2 11.4 19.6444 11.4 20.1778 11.4C21.7917 11.3151 23.4056 11.7983 24.7092 12.6946C24.8234 12.7731 24.8889 12.9041 24.8889 13.0426V14.1111C24.8889 14.602 25.2869 15 25.7778 15C26.2687 15 26.6667 14.602 26.6667 14.1111V12.4882C26.6667 12.2468 26.5707 12.0152 26.4 11.8444Z" fill="currentColor"/>
<path d="M18.1333 3.93334C18.5778 2.86667 19.8222 2.33334 20.9778 2.77778C22.0444 3.22223 22.5778 4.46667 22.1333 5.62223C21.7778 6.42223 20.9778 6.95556 20.1778 6.95556C20 6.95556 19.7333 6.95556 19.5556 6.86667C19.6444 7.31112 19.6444 7.75556 19.6444 8.11111V8.64445C19.8222 8.64445 20 8.73334 20.1778 8.73334C22.4 8.73334 24.1778 6.95556 24.1778 4.82223C24.1778 2.6 22.4 0.822226 20.2667 0.822226C18.8444 0.822226 17.6 1.53334 16.8889 2.77778C17.3333 3.04445 17.7778 3.4 18.1333 3.93334Z" fill="currentColor"/>
<path d="M8 11.5778C7.64444 11.0444 7.37778 10.4222 7.2 9.71111H6.48889C4.17778 9.62223 1.95556 10.4222 0.266667 11.8444C0.0959229 12.0152 0 12.2468 0 12.4882V14.3632C0 14.7149 0.285094 15 0.636775 15H0.888889C1.37981 15 1.77778 14.602 1.77778 14.1111V13.8743C1.77778 13.2157 2.0945 12.5845 2.67691 12.277C3.86177 11.6514 5.14728 11.3294 6.48889 11.4C7.02222 11.4 7.55556 11.4889 8 11.5778Z" fill="currentColor"/>
<path d="M6.48889 8.64445C6.66667 8.64445 6.84444 8.64445 7.02222 8.55556V8.02222C7.02222 7.57778 7.02222 7.13334 7.11111 6.77778C6.93333 6.86667 6.66667 6.86667 6.48889 6.86667C5.33333 6.86667 4.35555 5.88889 4.35555 4.73334C4.35555 3.57778 5.33333 2.6 6.48889 2.6C7.37778 2.6 8.17778 3.13334 8.53333 3.93334C8.88889 3.48889 9.42222 3.04445 9.86667 2.68889C8.71111 0.822225 6.31111 0.200003 4.44444 1.35556C2.57778 2.51111 1.95555 4.91111 3.11111 6.77778C3.82222 7.93334 5.06667 8.64445 6.48889 8.64445Z" fill="currentColor"/>
<path fill-rule="evenodd" clip-rule="evenodd" d="M20.6222 17.951C20.6222 17.4535 20.4424 16.9677 20.0803 16.6266C18.3126 14.9614 15.8311 13.8086 13.4222 13.8889C11.0133 13.8086 8.53184 14.9614 6.76415 16.6266C6.402 16.9677 6.22222 17.4535 6.22222 17.951V23.9333C6.22222 24.7333 6.84444 25.4444 7.73333 25.4444H19.1111C19.9111 25.4444 20.6222 24.7333 20.6222 23.9333V17.951ZM8 23.6667H18.7556V18.2142C18.7556 17.949 18.6523 17.6922 18.4546 17.5154C17.0643 16.2719 15.2432 15.5839 13.4222 15.6667C11.5187 15.6667 9.69223 16.2831 8.30155 17.516C8.1031 17.692 8 17.949 8 18.2142V23.6667Z" fill="currentColor"/>
</svg>
